<?xml version="1.0" standalone="no"?>
<svg xmlns="http://www.w3.org/2000/svg" viewBox="0 0 139 74" width="139" height="74"><g fill="#ead017" color="#ead017" transform="translate(47.133 0) scale(0.44) "><svg width="100.0" height="100.0" x="0.0" y="0.0" viewBox="0 0 100 100"><g display="none"><path display="inline" fill="currentColor" d="M77.3,87.5L61,55.7c-0.8,4.8-2.3,9.4-4.3,13.6l11.6,22.8c0.9,1.7,2.6,2.7,4.5,2.7   c0.8,0,1.5-0.2,2.3-0.5C77.6,93,78.5,90,77.3,87.5z"></path><circle display="inline" fill="currentColor" cx="50.6" cy="13.4" r="8.4"></circle><path display="inline" fill="currentColor" d="M70.7,40.5c-9.2-3.9-15.2-13.8-15.3-14c-1.5-2.6-4.9-3.5-7.5-1.9c-0.4,0.2-0.7,0.5-1,0.7   c-3.4,2.2-12.2,9-16.7,23.8c-0.9,2.8,0.7,5.8,3.6,6.7c2.8,0.9,5.8-0.7,6.7-3.6c1.9-6.3,4.7-10.7,7.2-13.5c0.6,3.7,0.9,8.6,0,14.1   C44.9,70,29,85.6,28.8,85.8c-2.1,2.1-2.2,5.4-0.1,7.6c1,1.1,2.4,1.6,3.8,1.6c1.3,0,2.7-0.5,3.7-1.5C37,92.8,55,75.2,58.1,54.6   c0.5-2.9,0.6-5.7,0.7-8.3c2.3,1.7,4.8,3.2,7.6,4.4c0.7,0.3,1.4,0.4,2.1,0.4c2.1,0,4.2-1.3,5.1-3.3C74.8,44.9,73.5,41.7,70.7,40.5z"></path></g><g display="none"><path display="inline" d="M24.8,18.6c5.7,0,10.3,4.6,10.3,10.3s-4.6,10.3-10.3,10.3c-5.7,0-10.3-4.6-10.3-10.3S19.1,18.6,24.8,18.6    M24.8,15.7c-7.3,0-13.3,6-13.3,13.3c0,7.3,6,13.3,13.3,13.3c7.3,0,13.3-6,13.3-13.3C38.1,21.6,32.1,15.7,24.8,15.7L24.8,15.7z"></path><g display="inline"><path d="M64,5C50.5,5,39.5,16,39.5,29.5c0,2.5,0.4,4.9,1.1,7.2c0.9-0.5,1.9-0.9,2.7-1.2c-0.5-1.9-0.9-3.9-0.9-6    C42.5,17.6,52.2,8,64,8c11.9,0,21.5,9.7,21.5,21.5C85.6,41.4,75.9,51,64,51c-4.6,0-8.9-1.5-12.4-3.9c-0.4,0.4-0.7,0.7-1,1.1    c4.6,3.2,7.3,3.6,11.2,4.2c0.4,0.1,0.7,0.3,0.9,0.6c0,0,0.3,0.4,0.7,1c0.2,0,0.3,0,0.5,0c13.5,0,24.5-11,24.5-24.5    C88.5,16,77.6,5,64,5z"></path></g><path display="inline" d="M67.6,60.7c-1.6-3.5-4.7-7.5-4.8-7.7c-0.2-0.3-0.6-0.5-0.9-0.6c-3.9-0.6-6.6-1-11.2-4.2   c1.6-1.9,4.1-3.9,6.5-5.2c1.4-0.7,3-1.2,4.5-1.6c3-0.8,6.7-1.9,5.8-5.6c-0.5-2.2-3.6-3.5-8.3-3.5c-0.5,0-1,0-1.6,0.1   c-3.1,0.2-6.3,0.5-11.7,2.3c-3.6,1.2-10.9,4.4-13,8.3c-2.3,3.9-1,9.8,3.2,14c0,0,3.9,4,9,9.5c1.2,1.3,2.4,2.6,3.5,4   c0.2,3.7,0.4,8.4,0,10.9c-0.4,2.3-2.4,7.9-0.8,9.2c1.2,0.9,4.7-1,7.5-4.2c0.2-0.2,0.3-0.4,0.5-0.6l0.6,2.6c0.6,3.9,3.3,6.9,6.1,6.9   l0.2,0c3.5-0.2,5.9-6.6,6.7-12.5C69.6,81.9,71.2,68.6,67.6,60.7z M66.6,82.2c-0.8,6.3-3.1,9.8-3.9,9.9l-0.1,0   c-1.2,0-2.8-1.8-3.2-4.4c0,0,0-0.1,0-0.1L58,81.3c-1.6-6.7-6.3-12.4-10.6-17.1c-5.2-5.5-9-9.5-9.1-9.5c-3.2-3.2-4.4-7.8-2.7-10.5   c1.3-2.4,6.8-5.5,11.3-6.9c5.1-1.6,8-1.9,11-2.1c0.5,0,0.9,0,1.4,0c3.6,0,5.2,0.9,5.4,1.3c0.2,0.8-0.3,1.1-3.7,2.1   c-1.6,0.5-3.4,1-5.1,1.9c-3.3,1.7-6.6,4.6-8.4,7.3c-0.3,0.5-0.3,1-0.1,1.5l0,0c0,0,6.8,10.1,16.3,10.1c0.5,0.9,1,1.8,1.4,2.6   C68.2,69,66.6,82,66.6,82.2z"></path></g><g display="none"><g display="inline"><path fill="currentColor" d="M88.6,25.9H62.9v-5.4c0-2.4-1.9-4.3-4.3-4.3H41.4c-2.4,0-4.3,1.9-4.3,4.3v5.4H11.4c-3.5,0-6.4,2.9-6.4,6.4    v45c0,3.5,2.9,6.4,6.4,6.4h77.1c3.5,0,6.4-2.9,6.4-6.4v-45C95,28.8,92.1,25.9,88.6,25.9z M41.4,20.5h17.1l0,5.4H41.4V20.5z     M73.8,30.2v49.3H26.3V30.2H73.8z M9.3,77.3v-45c0-1.2,1-2.1,2.1-2.1h8.7v49.3h-8.7C10.2,79.5,9.3,78.5,9.3,77.3z M90.7,77.3    c0,1.2-1,2.1-2.1,2.1H80V30.2h8.6c1.2,0,2.1,1,2.1,2.1V77.3z"></path><path fill="currentColor" d="M57,34.8L40.7,51.1L51.6,62l16.3-16.3V34.8H57z M64.1,41.9c-0.9,0.9-2.4,0.9-3.3,0c-0.9-0.9-0.9-2.4,0-3.3    c0.9-0.9,2.4-0.9,3.3,0C65,39.5,65,41,64.1,41.9z"></path></g></g><g display="none"><g display="inline"><path d="M94.5,57.5c-1.6-0.4-3.2,0.6-3.6,2.3c-4.4,19.2-21.2,32.6-41,32.6c-15,0-29-8.1-36.5-21.2c0-0.1-0.1-0.1-0.1-0.2    c0,0,0-0.1-0.1-0.1c-1.2-2.1-2.9-6.7-3.3-8c-0.9-3.5-0.8-5.8,0.2-7.2c1.3-1.6,4.3-2.5,8.8-2.6h4.8l0,0v4.4c0,3.2,2,5.8,4.6,5.8h13    v-5h7.9v-5.9h-7.9v-4h7.9v-5.9h-7.9v-5h-13c-2.5,0-4.6,2.6-4.6,5.8V47l0,0h-4.8C12.4,47.1,8,48.7,5.5,51.9c-2.3,3-2.7,7-1.3,12.4    c0.4,1.6,2.3,6.8,3.9,9.5c0,0.1,0.1,0.1,0.1,0.1c0,0,0,0.1,0.1,0.1C16.8,89.1,32.8,98.4,50,98.4c22.6,0,41.8-15.3,46.8-37.3    C97.2,59.5,96.2,57.8,94.5,57.5z M43.5,54.4h3.9v1.9h-3.9V54.4z M43.5,44.4h3.9v1.9h-3.9V44.4z M27.9,43.3c0-1.1,0.4-1.7,0.7-1.8    h8.9v17.8h-8.9c-0.2-0.2-0.7-0.8-0.7-1.8V43.3z"></path><path d="M5.5,43.2c0.2,0.1,0.4,0.1,0.7,0.1c1.4,0,2.6-0.9,2.9-2.3C13.4,21.8,30.3,8.4,50,8.4c15,0,29,8.1,36.5,21.2    c0.1,0.2,0.3,0.4,0.4,0.6c1.2,2.3,2.6,6.3,3,7.5c0.9,3.5,0.8,5.8-0.2,7.2c-1.3,1.6-4.3,2.5-8.8,2.6h-4.7v-4c0-3.2-2-5.8-4.6-5.8    h-13v25.8h13c2.5,0,4.6-2.6,4.6-5.8v-4h4.7c6.6-0.1,11.1-1.7,13.6-4.9c2.3-3,2.7-7,1.3-12.4c-0.4-1.6-2.3-6.8-3.9-9.5    c-0.1-0.3-0.3-0.5-0.5-0.7C82.6,11.4,66.9,2.4,50,2.4C27.4,2.4,8.2,17.7,3.2,39.7C2.8,41.3,3.8,42.9,5.5,43.2z M72.1,57.4    c0,1.1-0.4,1.7-0.7,1.8h-8.9V41.5h8.9c0.2,0.2,0.7,0.8,0.7,1.8V57.4z"></path></g></g><g display="none"><g display="inline"><path d="M61.5,93.9h-23c3.7,1,7.5,1.5,11.5,1.5C54,95.4,57.8,94.9,61.5,93.9z"></path><path d="M84.9,83.4v10.4H70.3c-1.2,0.5-2.3,1-3.6,1.5h19.7V81.8C85.9,82.4,85.4,82.9,84.9,83.4z"></path><path d="M29.7,93.9H15.1V83.4c-0.5-0.5-1-1.1-1.5-1.6v13.6h19.7C32.1,94.9,30.9,94.4,29.7,93.9z"></path><path d="M18.3,19.7c8-8.4,19.2-13.6,31.7-13.6s23.7,5.2,31.7,13.6h2C75.4,10.5,63.4,4.6,50,4.6c-13.4,0-25.4,5.8-33.7,15.1H18.3z"></path><path d="M95.4,50L95.4,50L95.4,50c0-8.2-2.2-15.9-6-22.6v3.1c2.9,5.9,4.6,12.5,4.6,19.4h0c0,24.2-19.7,43.9-43.9,43.9    C25.8,93.9,6.1,74.2,6.1,50l0,0c0-7,1.6-13.6,4.6-19.4v-3.1c-3.8,6.7-6,14.4-6,22.6l0,0l0,0l0,0l0,0C4.6,75,25,95.4,50,95.4    C75,95.4,95.4,75,95.4,50L95.4,50L95.4,50z"></path><path d="M86.2,22.7h-1.9H15.7h-1.9h-0.2v0.2l0,0v2.6l0,0v29.5h0V59v0.4v9.3c0.5,0.9,1,1.8,1.5,2.6v-12V59v-3.7h0V24.2h69.7v30.8h0    V59v0.4v12c0.5-0.9,1-1.7,1.5-2.6v-9.3V59v-3.7l0,0V25.4v-2.6v-0.2H86.2z"></path><path d="M49.8,34.9c-3,0-5.4-2.4-5.4-5.4c0-3,2.4-5.4,5.4-5.4c3,0,5.4,2.4,5.4,5.4C55.2,32.5,52.8,34.9,49.8,34.9z M49.8,25.6    c-2.2,0-3.9,1.8-3.9,3.9c0,2.2,1.8,3.9,3.9,3.9c2.2,0,3.9-1.7,3.9-3.9C53.7,27.4,52,25.6,49.8,25.6z"></path><path d="M81.4,35.6H71.2l11.5-5.2c1.7-0.7,2.4-2.7,1.7-4.3c-0.5-1.2-1.7-1.9-3-1.9c-0.5,0-0.9,0.1-1.3,0.3L55.1,35.6H44.4L20,24.4    c-0.4-0.2-0.9-0.3-1.4-0.3c-1.3,0-2.5,0.8-3,1.9c-0.8,1.6,0,3.6,1.6,4.3l11.4,5.2h-3.1l0,0h-6.9c-1.8,0-3.3,1.5-3.3,3.3    c0,1.8,1.5,3.3,3.3,3.3h23.4v13.9c0,0.1-0.1,0.2-0.1,0.3L31.2,86.9c-0.3,0.8-0.3,1.7,0.1,2.5c0.4,0.8,1,1.4,1.9,1.7    c0.4,0.1,0.7,0.2,1.1,0.2c1.4,0,2.6-0.9,3.1-2.2L42,76.6v14.8c0,1.8,1.5,3.3,3.3,3.3c1.8,0,3.3-1.5,3.3-3.3v-31h2.4v31    c0,1.8,1.5,3.3,3.3,3.3c1.8,0,3.3-1.5,3.3-3.3V77.2l4.3,11.9c0.5,1.3,1.7,2.2,3.1,2.2c0.4,0,0.8-0.1,1.1-0.2    c0.8-0.3,1.5-0.9,1.8-1.7c0.4-0.8,0.4-1.7,0.1-2.5c-8.4-24.2-10.2-29.2-10.5-30.3v-1.4h0v-13h23.9c1.8,0,3.3-1.5,3.3-3.3    C84.7,37.1,83.2,35.6,81.4,35.6z M80.7,25.8c0.2-0.1,0.5-0.2,0.7-0.2c0.7,0,1.3,0.4,1.6,1.1c0.4,0.9,0,2-0.9,2.4l-14.6,6.5h-8.8    L80.7,25.8z M17.8,29.1c-0.9-0.4-1.3-1.5-0.9-2.4c0.3-0.7,1-1.1,1.6-1.1c0.2,0,0.5,0.1,0.7,0.2l21.5,9.8h-8.7L17.8,29.1z M36,88.6    c-0.3,0.7-1,1.2-1.7,1.2c-0.2,0-0.4,0-0.6-0.1c-0.9-0.3-1.4-1.4-1.1-2.3L42,60.5v11.8L36,88.6z M66.6,87.4c0.3,0.9-0.1,2-1.1,2.3    c-0.2,0.1-0.4,0.1-0.6,0.1c-0.7,0-1.4-0.5-1.7-1.2l-5.7-15.8V61.1C60.4,69.5,66.6,87.4,66.6,87.4z M81.4,40.7H56.7L56,41v15.8v0    v11.9l0,0v22.7c0,1-0.8,1.8-1.8,1.8s-1.8-0.8-1.8-1.8V59H47v32.5c0,1-0.8,1.8-1.8,1.8c-1,0-1.8-0.8-1.8-1.8V68.2l0,0V55.3h0V41    l-0.6-0.3H18.6c-1,0-1.8-0.8-1.8-1.8c0-1,0.8-1.8,1.8-1.8h16.9h0h8.7h0h11.3l0,0h8.8h0h17.2c1,0,1.8,0.8,1.8,1.8    C83.2,39.9,82.4,40.7,81.4,40.7z"></path></g></g><g display="none"><g display="inline"><path d="M52.3,8.5c0.5,0,0.9,0.2,0.9,0.7c0,1.3-2.8,1.8-2.8,4.1v0.9h3.7v-0.6c0-1.4,3.1-1.9,3.1-4.9c0-2.6-2.4-3.8-4.6-3.8    c-2.6,0-4.1,1.7-4.1,1.7l2.1,2.6C50.6,9.3,51.4,8.5,52.3,8.5z"></path><rect x="50.5" y="15.4" width="3.4" height="3.2"></rect><path d="M62.9,45.1c2.2-2.6,3.6-6,3.6-9.6c0-8.2-6.7-14.9-14.9-14.9c-8.2,0-14.9,6.7-14.9,14.9c0,4,1.6,7.7,4.3,10.5    c-2,1.7-5.3,5.3-6.7,10.6l0,0.1c0,0.1-0.1,0.3-0.1,0.4l0,0.2c-0.1,0.5-0.2,0.9-0.3,1.4c-0.4,2.1-0.4,3.9,0,5.4    c0.3,1.4,1.4,2.8,1.6,3c0.1,0.1,0.1,0.1,0.2,0.2c0,0,0,0,0,0c0,2.1,0.1,5.5,0.2,6.1c0.4,8.5,2.7,16.4,4.3,19.4    c1.8,3.5,4.3,4,5.9,3.5c0.6-0.2,1.2-0.7,1.5-1.4c0.5-0.9,0.6-2,0.6-2.2c0,0,0-0.1,0-0.1l0-5.7c0.9,0.1,2.2,0.5,3.1,1.5    c1.9,2.2,2.4,3.5,3.1,5.5c0.6,1.8,1.7,2.4,2.4,2.6c0.3,0.1,0.6,0.1,0.9,0.1c0.9,0,1.8-0.3,2.5-0.9c1.5-1.3,4.1-7.6,4.7-17    c0.4-5.5-0.2-11-0.8-14.7c0,0,0-0.1,0-0.1c0,0,0-0.1,0-0.1c-0.2-1-0.3-1.9-0.4-2.7c0,0,0.1-0.1,0.1-0.1c0.3-0.3,0.6-0.7,0.8-1    c0.2-0.2,0.3-0.4,0.5-0.6c0.3-0.5,0.6-1,0.9-1.7c0.8-2.2,1.1-5.9-0.5-9.2C64.7,47.2,63.9,46.2,62.9,45.1z M62.3,57.5    c-0.1,0.2-0.3,0.3-0.4,0.5c-0.2,0.3-0.4,0.5-0.7,0.8c-0.2,0.2-0.5,0.5-0.7,0.7c-1,0.8-2,1.4-3,1.6c-0.2,0-0.5,0.1-0.7,0.1    c-0.7,0.1-1.5,0.1-2.2,0.1c0,0,0,0,0,0v0c-0.1,0-0.6-0.1-1.2-0.3c-0.8-0.2-1.9-0.7-2.7-1.4c-0.4-0.3-0.7-0.6-1-1    c-0.3-0.3-0.5-0.6-0.7-0.9c-0.2-0.3-0.4-0.5-0.5-0.9c-0.1-0.1-0.1-0.3-0.2-0.4c-0.2-0.3-0.3-0.7-0.5-1.1c-0.1-0.4-0.3-0.8-0.4-1.2    c-0.1-0.2-0.1-0.4-0.2-0.7c-0.6-2-0.8-3.8-0.8-5.2l0-0.1c0-0.7,0.1-1.2,0.2-1.4c0,0,0-0.1,0.1-0.1c0.1-0.1,0.4-0.1,0.6,0    c0.8,0.3,1.4,1,2.5,2.5c0,0,0.1,0.1,0.1,0.1l3.9,4.9c0.5,0.6,1.4,0.8,2.1,0.3c0,0,1.2-0.8,2.4-1.9c1-0.9,1.7-1.7,2.2-2.5    c0.4-0.7,0.7-1.4,1-2.1c0.5,0.6,0.9,1.2,1.2,1.8c1.2,2.5,1,5.2,0.4,6.8C62.6,56.9,62.5,57.3,62.3,57.5z M54.4,50    c0.8-0.2,1.5-0.4,2.3-0.6c-0.2,0.2-0.4,0.4-0.7,0.7c-0.3,0.3-0.6,0.5-0.9,0.7L54.4,50z M39.8,35.4c0-6.5,5.3-11.8,11.8-11.8    S63.3,29,63.3,35.4c0,6.2-4.9,11.4-11.1,11.7c0,0,0,0,0,0l-0.1-0.1c-1.2-1.7-2.2-3-4-3.6c-1-0.3-2.1-0.3-3,0.2    c-0.4,0.2-0.7,0.5-1,0.8C41.4,42.3,39.8,39,39.8,35.4z M36.9,59.1c0.1-0.4,0.2-0.8,0.3-1.2l0.1-0.5c0,0,0-0.1,0-0.1    c1-3.8,3.2-6.5,4.8-8.2c0.1,1.5,0.4,3.3,0.9,5.2l0.1,0.5c0.1,0.4,0.2,0.8,0.3,1.1c-0.1,0.1-0.3,0.2-0.4,0.3    c-0.5,0.4-0.8,0.6-1,0.7L42,57.1c-1,0.5-2,1-2.1,1c-0.7,0.3-1.1,1.1-0.9,1.8s0.8,1.2,1.6,1.2c0,0,1.2-0.1,2.6-0.3    c0.3-0.1,0.6-0.1,1-0.2c0.4-0.1,0.8-0.3,1.3-0.4c0.4,0.6,1,1.2,1.6,1.9c0.2,0.2,0.5,0.5,0.8,0.8c0.6,0.6,1.3,1,2.2,1.5    c-0.2,0.1-0.4,0.2-0.6,0.4c-2,1.1-5.9,2-8.4,2c0,0,0,0,0,0c-1.2,0-1.6-0.2-1.8-0.3c-0.2-0.1-0.9-0.6-1.4-1.2    c-0.3-0.4-0.8-1.3-1-1.8C36.6,62.1,36.6,60.8,36.9,59.1z M61.6,78.4c-0.6,9.7-3.2,14.4-3.6,14.8c-0.2,0.2-0.5,0.2-0.6,0.2    c-0.1,0-0.2-0.2-0.3-0.5c-0.7-2.3-1.4-4-3.7-6.7c-1.8-2-4.4-2.5-5.8-2.6c-0.7-0.1-1.3,0-1.3,0c-0.8,0.1-1.4,0.7-1.4,1.6l0,7.3    c0,0.2-0.1,0.5-0.2,0.8c-0.4-0.1-1.1-0.5-1.9-2c-1.4-2.6-3.5-10.1-3.9-18.1c0-0.9-0.1-2.5-0.1-3.9c0.6,0.2,1.4,0.3,2.3,0.3    c0,0,0,0,0,0c3,0,7.4-1.1,9.8-2.4c0.9-0.5,1.8-1.1,2.7-1.8c0.2-0.2,0.5-0.4,0.7-0.5c0.2-0.1,0.3-0.3,0.4-0.5c0.3,0,0.5,0,0.8,0    c0.6,0,1.2,0,1.8-0.1c0.3,0,0.7-0.1,1-0.2c0.9-0.2,1.7-0.5,2.5-0.9c0,0.3,0.1,0.6,0.1,0.9v0.1c0,0.2,0,0.3,0.1,0.5    C61.4,68.2,61.9,73.3,61.6,78.4z"></path></g></g><g><path fill-rule="evenodd" clip-rule="evenodd" d="M39.5,73.2c0,0,4.9,2.1,6.1,4.6c1.2,2.5,1.1,3.9,0.5,5c-0.5,1.1-3.2,2.3-6.2,2.3   c-3,0-7.4-0.4-7.4-0.4C45.5,81.9,39.5,73.2,39.5,73.2z"></path><path fill-rule="evenodd" clip-rule="evenodd" fill="none" stroke="currentColor" stroke-width="3" d="M69,27.8c0,7.7-6.3,14-14,14   c-7.7,0-14-6.3-14-14s6.3-14,14-14C62.7,13.8,69,20,69,27.8"></path><path fill-rule="evenodd" clip-rule="evenodd" fill="none" stroke="currentColor" stroke-width="3" d="M9,60.3c1.8-2.8,9.2-10.8,18.6-14   c6.2-2.1,15.6-3.6,20.7,1.8s8,13.1,12.4,15.1c4.4,2,8.2,2.3,9.4,4.3c1.2,1.9,0.5,5.7-3.5,5.7c-4.1,0-12.4-2.7-18.6-5   c-6.2-2.3-8-3.9-8-3.9l-4.3,7.6c0,0,2.3,0.4,4.3,1.8c2,1.4,3,4.3,1.2,6.4c-1.8,2.1-6,4.8-9.4,5.5c-3.4,0.7-14,1.2-19,0.2   c-5-1.1-8.1-6.7-7.8-13.5C5.4,66,7.2,63.1,9,60.3z"></path><path fill-rule="evenodd" clip-rule="evenodd" stroke="currentColor" stroke-width="3" d="M37.7,62.1c-0.6-0.6-1.9-1.9-1.9-1.9   s-3.2,4.7-4.8,6.7c-1.6,1.9-3.5,3.8-3.5,3.8s1.8,0.2,4.1,0.6c2.3,0.4,4.1,0.6,4.1,0.6l4.3-7.6C40,64.2,38.4,62.7,37.7,62.1z"></path><polygon fill-rule="evenodd" clip-rule="evenodd" fill="none" stroke="currentColor" stroke-width="2" stroke-linejoin="round" points="   83.8,50.8 95,60.8 94.4,76.4 81.9,78.8  "></polygon><path fill-rule="evenodd" clip-rule="evenodd" fill="none" stroke="currentColor" stroke-width="2" stroke-linejoin="round" d="   M49.3,80.4c0-0.5,0.4-0.9,0.9-0.9l31.7-0.7l0.1,5.9l-31.7-0.4c-0.5,0-0.9-0.4-0.9-0.9L49.3,80.4z"></path><polygon fill-rule="evenodd" clip-rule="evenodd" fill="none" stroke="currentColor" stroke-width="2" stroke-linejoin="round" points="   94.4,76.4 94.3,78.8 82,84.6 81.9,78.8  "></polygon><polygon fill-rule="evenodd" clip-rule="evenodd" fill="none" stroke="currentColor" stroke-width="1.2437" stroke-linejoin="round" points="   83.8,50.4 82.6,50.6 80.7,78.7 81.9,78.8  "></polygon><ellipse transform="matrix(-6.986933e-02 0.9976 -0.9976 -6.986933e-02 163.1483 -18.0938)" fill-rule="evenodd" clip-rule="evenodd" cx="90" cy="67" rx="1.9" ry="0.5"></ellipse></g><g display="none"><path display="inline" d="M50.3,43.5c-8.2,0-14.9-6.7-14.9-14.9c0-8.2,6.7-14.9,14.9-14.9c8.2,0,14.9,6.7,14.9,14.9   C65.2,36.8,58.5,43.5,50.3,43.5z M50.3,16.8c-6.5,0-11.8,5.3-11.8,11.8s5.3,11.8,11.8,11.8c6.5,0,11.8-5.3,11.8-11.8   S56.8,16.8,50.3,16.8z"></path><path display="inline" d="M60.3,96.5c-0.4,0-0.8-0.1-1.2-0.2c-2.1-0.7-2.4-3.6-2.4-4.1l0-0.1v-7.6c-1.5,0-4.5,0.3-6.4,1.8   c-1.8,1.5-2,2.8-2.3,4.5c-0.1,0.8-0.2,1.6-0.5,2.4c-0.7,2-2.2,3.1-4.2,3.1h0c-0.7,0-1.4-0.1-2.1-0.4c-2.4-0.8-5.7-9.7-6.5-21.1   c-0.8-12.2,1.9-19.5,2-19.8l0.3-0.8l31.2-6.2l0.5,1.1c0,0.1,0.7,1.5,1.1,3.2c0,0.2,0.2,0.5,0.3,0.9c0.7,2.1,2.2,6.5,1.8,15.3   c-0.5,10.5-3.6,20.3-5.6,23.9C64,96.1,61.3,96.5,60.3,96.5z M60.1,93.5c0,0,0.1,0,0.2,0c0.8,0,2.1-0.7,3.2-2.8   c1.8-3.2,4.7-12.6,5.2-22.5c0.4-8.2-1-12.2-1.6-14.1c-0.2-0.5-0.3-0.9-0.4-1.2c-0.1-0.5-0.3-1-0.4-1.4l-27.1,5.4   c-0.6,2.1-2.2,8.5-1.5,17.8c0.8,11.2,3.7,17.5,4.6,18.5c0.4,0.1,0.7,0.2,1,0.2h0c0.6,0,1-0.2,1.3-1c0.2-0.6,0.3-1.3,0.4-2   c0.3-1.9,0.6-4.2,3.4-6.4c2.7-2.1,6.6-2.4,8.7-2.4c0.8,0,1.3,0,1.3,0l1.4,0.1l0,10.5C59.7,92.6,59.9,93.2,60.1,93.5z"></path><path display="inline" fill-rule="evenodd" clip-rule="evenodd" d="M36,73l18.1,4.7c0,0,15.2-6.6,16-7c0.2-2.2,0.1-4.5,0.1-4.5   l-34.3,0.9L36,73z"></path><g display="inline"><polygon fill-rule="evenodd" clip-rule="evenodd" points="48.7,34.6 71.2,25.2 71.1,33.1 51.5,41.5   "></polygon><path d="M51.1,42.2l-2.9-7.9l23.4-9.8l-0.1,8.9L51.1,42.2z"></path></g><g display="inline"><polygon fill-rule="evenodd" clip-rule="evenodd" points="48.8,34.6 25,26.8 28.7,35.5 51.8,41.5   "></polygon><path d="M52.3,42.1l-27.1-6.2l-0.8-9.8l24.8,8.1L52.3,42.1z"></path></g><g display="inline"><polygon fill="currentColor" points="51.5,71.2 71.4,63.2 71.4,53.1 70.2,52.6 70.2,44.7 71.4,43.9 71.4,30.4 49.6,37.7 48.7,38     47.8,37.8 25.8,32.2 27.3,45.7 28.4,46.2 31.5,50.9 29.3,56.8 28.4,56.8 29.3,65.3   "></polygon><rect x="66.7" y="34" transform="matrix(-2.350372e-03 1 -1 -2.350372e-03 108.6381 -40.4208)" width="15.7" height="0"></rect><polygon points="74.4,65.3 74.4,54.1 74.4,54.1   "></polygon><polygon points="47.8,37.8 48.7,38 49.6,37.7 71.4,30.4 71.4,43.9 73.9,42.1 74.5,41.8 74.5,26.2 48.6,34.9 22.3,28.2 24,44.3     27.3,45.7 25.8,32.2   "></polygon><polygon points="74,54.4 71.4,53.1 71.4,63.2 51.5,71.2 29.3,65.3 28.4,56.8 25.4,57.2 26.5,67.7 51.6,74.4 74.4,65.3 74.4,54.1       "></polygon></g><path display="inline" d="M73.5,55.2c-2.1,0-3.7-1-4.5-2.8c-1.1-2.5-1-5.4-0.3-7c0.5-1.4,1.1-2.7,2.6-3.8c1.3-1,3-1.7,3.1-1.7   l0.5-0.2l0.5,0.1c1.8,0.5,5.3,2.6,5.5,7c0.3,5.5-4.7,7.9-5.9,8.2C74.7,55.1,74.2,55.2,73.5,55.2z M75,43c-0.5,0.2-1.3,0.6-1.9,1.1   c-0.8,0.6-1.2,1.4-1.6,2.5c-0.3,0.8-0.5,2.8,0.3,4.7c0.1,0.3,0.4,1,1.7,1c0.3,0,0.5,0,0.7-0.1c0,0,3.8-1.4,3.6-5   C77.7,44.5,75.8,43.4,75,43z"></path><path display="inline" d="M25.8,58.9c-2.2,0-6.5-2.6-6.7-8.6c-0.2-5.4,3.2-7.2,5-7.4l0.4,0l0.4,0.1c0,0,1.6,0.7,2.8,1.2   c0.2,0.1,0.3,0.1,0.5,0.2c1.2,0.5,3.3,1.3,4.2,3.6c0.8,2.2,0.9,5.6-0.8,7.9C30,58.1,27.3,58.9,25.8,58.9z M24.1,46.1   c-0.6,0.2-2,1.1-1.9,4.2c0.1,4.8,3.5,5.6,3.7,5.6c0.7,0,2.4-0.5,3.3-1.7c0.8-1.1,1-3.3,0.4-5c-0.4-0.9-1.3-1.4-2.5-1.9   c-0.2-0.1-0.5-0.2-0.7-0.3C25.6,46.7,24.7,46.3,24.1,46.1z"></path><path display="inline" d="M50,9.8c-0.8,0-1.5-0.7-1.5-1.5V5c0-0.8,0.7-1.5,1.5-1.5s1.5,0.7,1.5,1.5v3.3C51.5,9.1,50.9,9.8,50,9.8z"></path><path display="inline" d="M60.3,12.5c-0.4,0-0.7-0.1-1-0.4c-0.6-0.6-0.7-1.5-0.2-2.1l1.9-2.2c0.6-0.6,1.5-0.7,2.2-0.2   c0.6,0.6,0.7,1.5,0.2,2.1l-1.9,2.2C61.2,12.3,60.8,12.5,60.3,12.5z"></path><path display="inline" d="M40.4,12.7c-0.4,0-0.7-0.1-1-0.4l-2-1.9c-0.6-0.6-0.7-1.5-0.1-2.2c0.6-0.6,1.5-0.7,2.2-0.1l2,1.9   c0.6,0.6,0.7,1.5,0.1,2.2C41.3,12.5,40.8,12.7,40.4,12.7z"></path><rect x="30.3" y="53.1" transform="matrix(7.675382e-02 0.9971 -0.9971 7.675382e-02 100.7355 0.456)" display="inline" width="39.7" height="3"></rect></g><g display="none"><g display="inline"><g><defs><path id="cl" d="M54.3,84.4c-1-4.1-3.6-7.7-6-10.5c0.1,2.9,0.5,7.8,0.1,10.2c-0.3,1.8-1.8,6-0.6,7      c0.9,0.7,3.6-0.8,5.8-3.2c0.4-0.5,0.8-1,1.3-1.5C54.7,85.7,54.5,85.1,54.3,84.4"></path></defs><clipPath id="ck"><use overflow="visible"></use></clipPath><rect x="46.1" y="72.7" clip-path="url(#ck)" fill="currentColor" width="9.8" height="19.6"></rect></g><path fill="none" stroke="currentColor" stroke-width="1.9202" stroke-miterlimit="10" d="M44.8,50.3c-4.1-8.3-1.5-18.5,6.2-23.8    c0.6-0.5,1.4-1.5,1.1-2.7c-0.4-1.7-2.5-10.9-3-13.1l-0.4,0.1c-0.5,0.1-1-0.2-1.1-0.7l-0.4-1.6c-0.1-0.5,0.2-1,0.7-1.1L58.3,5    c0.5-0.1,1,0.2,1.1,0.7l0.4,1.6c0.1,0.5-0.2,1-0.7,1.1l-0.2,0.1c0.5,2.2,2.6,11.5,3,12.9c0.4,1.4,2.4,2.1,2.8,2.2    c5.2,0.9,10,4,13,8.9c5.3,8.9,2.4,20.4-6.5,25.6c-6.6,4-14.8,3.3-20.6-1"></path><path fill-rule="evenodd" clip-rule="evenodd" d="M46,36.5c-1.2,3.3-1.4,7.1-0.2,10.7c0.3,0.9,0.6,1.7,1,2.5    c0.6,1.1,6.9-1.9,9.4-1.4c14.4,2.5-5.6,6.5-4.4,7.3c4.1,3,9.6,4.1,14.8,2.4c8.7-2.8,13.5-12.1,10.7-20.8c-0.1-0.2-0.1-0.4-0.2-0.6    H46z"></path><g><defs><path id="cj" d="M60.7,66.8c0,0-1.7-2.8-2.5-3.7c-6.2-0.9-10-4.1-10-4.1C48.3,59,53.8,67,60.7,66.8z"></path></defs><clipPath id="ci"><use overflow="visible"></use></clipPath><rect x="47.1" y="57.9" clip-path="url(#ci)" fill="currentColor" width="14.8" height="10.1"></rect></g><path d="M62.8,68.7c-1.2-2.7-3.6-5.8-3.7-5.9c-0.2-0.2-0.4-0.4-0.7-0.4c-3-0.5-5-0.8-8.6-3.3c1.3-1.5,3.1-3,5-4    c1.1-0.6,2.3-0.9,3.5-1.2c2.3-0.6,5.1-1.5,4.4-4.3c-0.4-1.7-2.8-2.7-6.3-2.7c-0.4,0-0.8,0-1.2,0c-2.4,0.2-4.8,0.4-8.9,1.7    c-2.8,0.9-8.4,3.4-9.9,6.3c-1.8,3-0.7,7.5,2.5,10.8c0,0,3,3,6.9,7.3c0.9,1,1.8,2,2.7,3.1c0.1,2.9,0.3,6.4,0,8.3    c-0.3,1.8-1.8,6.1-0.6,7c0.9,0.7,3.6-0.8,5.8-3.2c0.1-0.1,0.3-0.3,0.4-0.5l0.5,2c0.5,3,2.5,5.3,4.7,5.3l0.1,0    c2.7-0.1,4.6-5,5.1-9.6C64.3,85,65.5,74.7,62.8,68.7z M62,85.1c-0.6,4.8-2.3,7.5-3,7.6l0,0c-0.9,0-2.2-1.4-2.5-3.4    c0,0,0-0.1,0-0.1l-1.1-4.7c-1.2-5.1-4.8-9.5-8.1-13.1c-4-4.2-6.9-7.3-6.9-7.3c-2.4-2.5-3.4-5.9-2.1-8.1c1-1.9,5.3-4.2,8.7-5.3    c3.9-1.2,6.1-1.5,8.4-1.6c0.4,0,0.7,0,1.1,0c2.8,0,4,0.7,4.1,1c0.1,0.6-0.2,0.9-2.9,1.6c-1.2,0.4-2.6,0.7-3.9,1.4    c-2.5,1.3-5.1,3.5-6.5,5.6C47,59,47,59.5,47.2,59.8l0,0c0,0,5.2,7.7,12.5,7.8c0.4,0.7,0.8,1.4,1.1,2C63.2,75.1,62,85,62,85.1z"></path><path fill="currentColor" stroke="currentColor" stroke-width="1.4401" stroke-miterlimit="10" d="M50.7,59.2c1.4-1.7,2.7-2.7,4.8-3.8    c1.2-0.6,2.6-1,3.9-1.4c2.6-0.7,4.4-1.9,4-4.5c-0.3-2-3.4-3.2-7.4-3.2c-0.5,0-5.6,0.2-10.3,1.7c-3.1,1-9.5,3.8-11.3,7.2"></path><path d="M29.9,36.4c4.4,0,7.9,3.6,7.9,7.9c0,4.4-3.6,7.9-7.9,7.9S22,48.7,22,44.3C22,40,25.5,36.4,29.9,36.4 M29.9,34.1    c-5.6,0-10.2,4.6-10.2,10.2c0,5.6,4.6,10.2,10.2,10.2c5.6,0,10.2-4.6,10.2-10.2C40.1,38.7,35.5,34.1,29.9,34.1L29.9,34.1z"></path></g></g><g display="none"><g display="inline"><path fill-rule="evenodd" clip-rule="evenodd" fill="none" stroke="currentColor" stroke-width="3.0012" stroke-miterlimit="10" d="    M37.5,34.6c-0.3-6.4-1.4-11.5-1.8-15.4C35.2,14.5,33.8,6,37.4,5.1c3.6-0.9,4.9,5.1,5.5,6.9c0.6,1.8,1.9,6.4,2.9,9.6    c0.2,0.7,0.5,1.8,0.8,3.2"></path><path fill-rule="evenodd" clip-rule="evenodd" fill="none" stroke="currentColor" stroke-width="3.0012" stroke-miterlimit="10" d="    M30.3,64.3c0.6-1.2,1.4-2.5,2.3-3.8c3.4-4.9,4.5-10.7,4.8-16.5"></path><path fill-rule="evenodd" clip-rule="evenodd" fill="none" stroke="currentColor" stroke-width="3.0012" stroke-miterlimit="10" d="    M60.2,51.4c2.3,3.4,4.5,7.2,5.9,10.6c3.1,7.9,3.5,13.7,1.2,19.8c-2.3,6.1-7,9.6-11.7,9.4c-1.6-0.1-3.8-1.1-3.8-1.2"></path><path fill-rule="evenodd" clip-rule="evenodd" d="M60.8,52.2c0,0,2.1,3.4,3,5.2c-1,1.4-4.6,2.5-7,2.5c-5.6,0-10.5-3-13.1-7.5    C43.6,52.4,50.5,56.8,60.8,52.2z"></path><path fill-rule="evenodd" clip-rule="evenodd" stroke="currentColor" stroke-width="2.0008" stroke-linecap="round" stroke-linejoin="round" stroke-miterlimit="10" d="    M51.7,90.6c3.1-1.3,6.5-4.3,7.6-7.1c1.2-2.8,1.6-6.8,0.9-11.4c-0.7-4.7-2.7-8.6-2.7-8.6s3.9,9.5,1.4,13.2    c-2.5,3.7-6.8,8.2-8.3,9.7"></path><ellipse fill-rule="evenodd" clip-rule="evenodd" fill="none" stroke="currentColor" stroke-width="3.0012" stroke-miterlimit="10" cx="51.9" cy="39.5" rx="15.2" ry="15.2"></ellipse><path fill="none" stroke="currentColor" stroke-width="3.0025" stroke-miterlimit="10" d="M32.5,87.1c-2-1.6-4-3.2-5.4-4.6    c-4.1-3.9-5.2-5.7-5.4-9.3c-0.2-3.9,1.9-6.1,3.7-7.3c1.3-0.8,3.1-1.3,4.7-1.3c1.9,0,3.6,0.6,5,1.8c2.3,1.9,3.1,4.2,3.8,6.3    c0.3,1,0.6,1.9,1,2.6 M49.4,86.4c1,1.4,1.3,3.2,1,4.7c-0.2,1.1-0.9,2-1.8,2.5c-0.7,0.4-1.6,0.6-2.5,0.6c-1.6,0-3.3-0.6-4.7-1.1    l-0.1,0"></path><path fill="none" stroke="currentColor" stroke-width="3.0025" stroke-miterlimit="10" d="M34.6,95L34.6,95c-0.8,0-1.6-0.2-2.2-0.5    c-0.9-0.5-1.6-1.3-1.9-2.4c-0.4-1.5-0.1-3.3,0.8-4.7c0.7-1.1,1.7-2.1,2.9-3.2c1.1-1,2.2-2.1,3-3.3c1.5-2.1,1.6-2.3,2.3-3.9    c0.1-0.3,0.3-0.7,0.5-1.1c0.4-0.8,0.6-1.7,0.9-2.7c0.6-2.1,1.3-4.5,3.4-6.5c1.5-1.3,3.3-2,5.4-2c1.5,0,3.2,0.4,4.3,1.1    c1.9,1.1,4.1,3.2,4.1,7.1c0,3.6-1,5.5-4.9,9.6c-3.7,3.9-11.6,10.4-13.7,11.3l-0.1,0.1C38.1,94.3,36.3,95,34.6,95z"></path><path d="M68.3,24.2c-0.2,0-0.5-0.1-0.7-0.3c-0.4-0.4-0.4-1,0-1.4l2.6-2.8c0.4-0.4,1-0.4,1.4,0c0.4,0.4,0.4,1,0,1.4L69,23.9    C68.8,24.1,68.5,24.2,68.3,24.2z"></path><path d="M74,33.6c-0.5,0-0.9-0.4-1-0.9c-0.1-0.5,0.3-1,0.9-1.1l3.3-0.4c0.5-0.1,1,0.3,1.1,0.9c0.1,0.5-0.3,1-0.9,1.1l-3.3,0.4    C74,33.6,74,33.6,74,33.6z"></path><path d="M57.2,18.3c-0.5,0-0.9-0.4-1-0.9L56,14.3c0-0.5,0.4-1,0.9-1.1c0.5,0,1,0.4,1.1,0.9l0.3,3.1C58.2,17.8,57.8,18.3,57.2,18.3    C57.3,18.3,57.2,18.3,57.2,18.3z"></path><path fill="none" stroke="currentColor" stroke-width="3.0012" stroke-miterlimit="10" d="M33,87.4"></path></g></g><g display="none"><ellipse display="inline" fill-rule="evenodd" clip-rule="evenodd" fill="none" stroke="currentColor" stroke-width="3" stroke-miterlimit="10" cx="34" cy="21.7" rx="14.4" ry="14.4"></ellipse><g display="inline"><defs><path id="ch" d="M67,67.7c0-1,0.8-1.9,1.9-1.9h15.8c1,0,1.9,0.8,1.9,1.9v15.8c0,1-0.8,1.9-1.9,1.9H68.8     c-1,0-1.9-0.8-1.9-1.9V67.7z"></path></defs><clipPath id="cg"><use overflow="visible"></use></clipPath><g clip-path="url(#cg)"><path d="M84.5,67.9v15.5H69V67.9H84.5 M84.6,65.9H68.8c-1,0-1.9,0.8-1.9,1.9v15.8c0,1,0.8,1.9,1.9,1.9h15.8c1,0,1.9-0.8,1.9-1.9     V67.7C86.5,66.7,85.6,65.9,84.6,65.9L84.6,65.9z"></path></g></g><path display="inline" fill-rule="evenodd" clip-rule="evenodd" fill="none" d="M67,67.7c0-1,0.8-1.9,1.9-1.9h15.8   c1,0,1.9,0.8,1.9,1.9v15.8c0,1-0.8,1.9-1.9,1.9H68.8c-1,0-1.9-0.8-1.9-1.9V67.7z"></path><g display="inline"><defs><path id="cf" d="M68.2,48.2c0-1,0.8-1.9,1.9-1.9h15.8c1,0,1.9,0.8,1.9,1.9V64c0,1-0.8,1.9-1.9,1.9H70.1     c-1,0-1.9-0.8-1.9-1.9V48.2z"></path></defs><clipPath id="ce"><use overflow="visible"></use></clipPath><g clip-path="url(#ce)"><path d="M85.7,48.4v15.5H70.2V48.4H85.7 M85.9,46.4H70.1c-1,0-1.9,0.8-1.9,1.9V64c0,1,0.8,1.9,1.9,1.9h15.8c1,0,1.9-0.8,1.9-1.9     V48.2C87.7,47.2,86.9,46.4,85.9,46.4L85.9,46.4z"></path></g></g><path display="inline" fill-rule="evenodd" clip-rule="evenodd" fill="none" d="M68.2,48.2c0-1,0.8-1.9,1.9-1.9h15.8   c1,0,1.9,0.8,1.9,1.9V64c0,1-0.8,1.9-1.9,1.9H70.1c-1,0-1.9-0.8-1.9-1.9V48.2z"></path><g display="inline"><path d="M73.9,70.9H80v1.8l-1.4,1.8c1.2,0.3,1.8,1.3,1.8,2.3c0,1.5-1,3.1-3.5,3.1c-2.1,0-3.1-1.2-3.1-1.2l1.2-1.9    c0,0,0.8,0.7,1.7,0.7c0.7,0,1-0.3,1-0.7c0-0.4-0.3-0.7-1.2-0.7c-0.1,0-0.2,0-0.4,0l-0.5-1.2l1.3-1.7c0.2-0.3,0.5-0.5,0.5-0.5v0    c0,0-0.3,0-0.6,0H76v0.7h-2.1V70.9z"></path></g><g display="inline"><path d="M74.5,59.2c0-3.3,3.8-3.8,3.8-5c0-0.6-0.4-0.7-0.7-0.7c-0.7,0-1.2,1-1.2,1l-1.8-1.2c0,0,0.8-2,3.3-2    c1.4,0,3.2,0.7,3.2,2.8c0,2.5-3.6,3.1-3.7,4.2h1.7v-1h2.1v3.1h-6.6C74.6,59.9,74.5,59.5,74.5,59.2z"></path></g><g display="inline"><path d="M68,27.6l6.3,14.2l-14.2,6.3l-6.3-14.2L68,27.6 M68.1,25.6c-0.3,0-0.5,0.1-0.8,0.2l-14.4,6.4c-0.9,0.4-1.4,1.5-0.9,2.5    l6.4,14.4c0.3,0.7,1,1.1,1.7,1.1c0.3,0,0.5-0.1,0.8-0.2l14.4-6.4c0.9-0.4,1.4-1.5,0.9-2.5l-6.4-14.4C69.5,26,68.8,25.6,68.1,25.6    L68.1,25.6z"></path></g><g display="inline"><path d="M62.2,41.1l1.7-0.8l-1.2-2.7c-0.1-0.3-0.3-0.7-0.3-0.7l0,0c0,0,0,0.3-0.1,0.5l-0.2,0.5l-2-0.9l1.4-3.2l2-0.9l2.8,6.2    l1.7-0.8l0.8,1.9l-5.7,2.6L62.2,41.1z"></path></g><path display="inline" fill-rule="evenodd" clip-rule="evenodd" fill="none" stroke="currentColor" stroke-width="3" stroke-linejoin="round" stroke-miterlimit="10" d="   M23.8,42.5c1.7-1,5.5-2.6,9.7-1.3c4.2,1.3,4.4,3.7,13.6,4c9.2,0.2,11.1-1.4,11.8,1.7c0.8,3.1-5.5,5.9-7.3,6.5   c-1.8,0.6-13.3,2.9-16.5,3.3c-0.4,1.8-0.8,9,0,11.6c0.8,2.6,7.3,8.4,9.4,12.4c2,4.1-1.1,7.7-6,8.5c-4.8,0.8-12.8,1.2-18.1,0.1   c-5.3-1.1-4.1-0.9-6.2-1.1c-2-0.2-3.4,0.5-5.7,1.1c-2.3,0.6-4.1,1.1-3.2-3.2c0.9-4.2,4.2-7,6.1-7.7c1.8-0.7,6.3,0,6.3,0   s-6.1-6.1-5.4-14.7c0.5-6.2,3-11.8,4.8-14.5C18.7,46.6,22.1,43.6,23.8,42.5z"></path><path display="inline" fill-rule="evenodd" clip-rule="evenodd" d="M35,55.2l-7.2,0.9c0,0,0.6,3,1.9,5.9c1.3,2.9,3.1,6.7,4.7,8.3   C33.2,60.5,35,55.2,35,55.2z"></path><path display="inline" fill="none" stroke="currentColor" stroke-width="3" stroke-linecap="round" stroke-miterlimit="10" d="   M16.1,76.8c2.6,4.3,7.1,4.5,13,4.3"></path></g><g display="none"><path display="inline" fill-rule="evenodd" clip-rule="evenodd" d="M55,79.9c0,0-2.8,0.7-5.4-1.4c-2.6-2.1-3.1-5.7-2.6-9.4   c0.5-3.7,0.9-12.1,0.5-14.4c-0.4-2.3-2.6-7.5-2.6-7.5l7.7-4l6,19.8L55,79.9z"></path><g display="inline"><path d="M32.3,52.9c-4.3,0-7.5,1.9-8.3,4.9c-1,3.8,2.8,8.1,8.4,9.5c1.2,0.3,2.4,0.5,3.6,0.5h0c4.3,0,7.5-1.9,8.3-4.9    c1-3.8-2.8-8.1-8.4-9.5C34.7,53.1,33.5,52.9,32.3,52.9L32.3,52.9z M36.1,66.2c-1.1,0-2.2-0.1-3.2-0.4c-4.8-1.2-8-4.6-7.3-7.6    c0.6-2.2,3.3-3.7,6.8-3.7c1.1,0,2.2,0.1,3.2,0.4c4.8,1.2,8,4.6,7.3,7.6C42.3,64.7,39.6,66.2,36.1,66.2L36.1,66.2L36.1,66.2z"></path></g><path display="inline" d="M36.4,66.5L36.4,66.5c-1.2,0-2.4-0.2-3.6-0.5c-2.7-0.7-5-2-6.6-3.7c-1.7-1.8-2.3-3.9-1.8-5.8   c0.7-3,4-4.9,8.3-4.9c1.2,0,2.4,0.2,3.6,0.5c2.7,0.7,5,2,6.6,3.7c1.7,1.8,2.3,3.9,1.8,5.8C43.9,64.6,40.6,66.5,36.4,66.5z    M32.6,53.3c-3.5,0-6.2,1.5-6.8,3.7c-0.3,1.4,0.2,3,1.5,4.4c1.4,1.5,3.4,2.7,5.8,3.2c1.1,0.3,2.2,0.4,3.2,0.4h0   c3.5,0,6.2-1.5,6.8-3.7c0.3-1.4-0.2-3-1.5-4.4c-1.4-1.5-3.4-2.7-5.8-3.2C34.8,53.4,33.7,53.3,32.6,53.3z"></path><path display="inline" fill-rule="evenodd" clip-rule="evenodd" d="M8.9,54.9l-3.1-0.8C5.2,54,4.9,53.4,5,52.9l0.4-1.7   c0.1-0.5,0.7-0.9,1.2-0.7l2,0.5L8.9,54.9z"></path><path display="inline" fill-rule="evenodd" clip-rule="evenodd" d="M15.6,52.7l2.3,0.6c0.5,0.1,0.9,0.7,0.7,1.2l-0.4,1.7   c-0.1,0.5-0.7,0.9-1.2,0.7l-3.4-0.8L15.6,52.7z"></path><rect x="15.2" y="55.1" transform="matrix(0.9703 0.2419 -0.2419 0.9703 14.1414 -3.2888)" display="inline" width="10.5" height="1.7"></rect><path display="inline" fill-rule="evenodd" clip-rule="evenodd" fill="none" stroke="currentColor" stroke-width="3" stroke-linejoin="round" d="   M25.8,38.7c-1,0.6-2,1.4-2.8,2.3c-4,4.3-5.6,7.7-6.3,10.5c-0.7,2.9-1.3,5.6-3.9,6.1c-2.6,0.5-6-2.1-4.8-9.8   c1.1-7.7,3.5-12.1,5.2-15c2.3-3.8,10.7-23.5,39.4-16.6s33.6,30.3,34,37.6c0.4,7.3-1.6,15.5-1.6,15.5s1.4-0.7,5.2,0.6   c3.8,1.3,5.7,4.9,4.7,8.2c-0.6,1.3-1.7,1.2-2.2,1.3c-0.3,0.1-15.7,0.4-27.8,0.3"></path><path display="inline" fill-rule="evenodd" clip-rule="evenodd" fill="none" stroke="currentColor" stroke-width="3" stroke-linejoin="round" d="   M54,79.6c-1.7-0.1-2.8-0.3-3.1-0.4c-2.7-1.4-4.8-3.6-3.8-11c0.9-7.3,0.6-13-0.5-16.7c-0.3-1.1-0.9-2.4-1.4-3.6"></path><path display="inline" fill-rule="evenodd" clip-rule="evenodd" fill="none" d="M50.9,42.4c0,0,7,7.3,7.3,17.3   c0.3,10-3,16.3-3.3,18.3c-0.2,2-0.1,4.8,4.9,4.4c5-0.4,8.7-9.4,9.5-11.8s4-12.4,3.1-21.7"></path><path display="inline" stroke="currentColor" stroke-width="2" d="M58.8,83.1c-1.7,0-2.8-0.4-3.6-1.2c-1.1-1.1-1.1-2.7-0.9-4   c0.1-0.6,0.3-1.4,0.7-2.6c1-3.1,2.7-8.3,2.5-15.7c-0.2-9.7-5.9-15.5-6-15.5c-0.3-0.3-0.3-0.7,0-1c0.3-0.3,0.7-0.3,1,0   c0.3,0.3,6.1,6.3,6.3,16.5c0.2,7.5-1.6,12.9-2.6,16.1c-0.3,1-0.6,1.8-0.7,2.3c-0.1,1-0.1,2.2,0.6,2.9c0.6,0.7,1.9,0.9,3.6,0.8   c2.4-0.2,4.5-2.8,5.8-4.9c1.6-2.5,2.7-5.2,3.1-6.5c3.3-10.1,3.5-17.2,3.1-21.4c0-0.4,0.2-0.7,0.6-0.7c0.4,0,0.7,0.2,0.7,0.6   c0.4,4.3,0.2,11.6-3.2,21.9c0,0.1-3.9,11.8-10,12.3C59.5,83.1,59.2,83.1,58.8,83.1z"></path><path display="inline" fill="none" stroke="currentColor" stroke-width="3" d="M40.3,19.1c-8.3,0-15,6.7-15,15c0,8.3,6.7,15,15,15   c8.3,0,15-6.7,15-15C55.3,25.8,48.6,19.1,40.3,19.1z"></path><path display="inline" fill-rule="evenodd" clip-rule="evenodd" d="M83.5,68.9c0,0-1,3.9-1.3,4.7c-0.3,0.8-0.5,1.2-0.5,1.2   s2.5-0.9,3.3-2.3c0.9-1.4,1-3.7,1-3.7C84.3,68.5,83.5,68.9,83.5,68.9z"></path><path display="inline" d="M29.3,84.6c-0.4,0-0.7-0.2-0.9-0.5c-3.6-6.5-2.1-9.3-2-9.5c0.2-0.5,0.8-0.7,1.3-0.5   c0.5,0.2,0.7,0.8,0.5,1.3c-0.1,0.2-1.1,2.1,1.9,7.7c0.3,0.5,0.1,1.1-0.4,1.4C29.6,84.6,29.4,84.6,29.3,84.6z"></path><path display="inline" d="M29.1,85C29.1,85,29.1,85,29.1,85c-0.4,0-0.7-0.1-0.9-0.4c-0.3-0.3-1-0.8-1.6-0.9c-0.6-0.1-1.5,0-2,0.1   c-0.7,0.2-1.5-0.3-1.6-1c-0.2-0.7,0.2-1.5,1-1.6c0.2,0,1.8-0.5,3.2-0.2c1,0.2,1.9,0.8,2.4,1.2c0.6-0.1,1.6-0.4,2.4-1.5   c0.4-0.6,1.3-0.7,1.9-0.3c0.6,0.4,0.7,1.3,0.3,1.9C32.2,84.9,29.4,85,29.1,85z"></path><path display="inline" fill-rule="evenodd" clip-rule="evenodd" fill="none" stroke="currentColor" d="M29.3,69.3c0,0,1.6-1.5,3-1.1   c1.4,0.3,0.5,2,0.5,2s1.6,0.1,1.9,0.6c0.4,0.5,0.4,2.2-0.6,2.6c-1,0.4-1.5,0.6-1.5,0.6s1.1,1.5,0.1,2.3c-1,0.8-2.2,0.8-2.8,0.5   c-0.6-0.3-1.8-1.4-2-2c-0.3-0.7-0.3-1.3-0.3-1.3s-0.5,1.2-1.8,1.5c-1.3,0.3-3.1-0.5-3.6-1.7c-0.5-1.2-0.1-2.1,0.4-2.6   c0.5-0.5,2.2-0.5,2.2-0.5s-0.5-0.8-0.2-1.2c0.3-0.5,1.4-1,2.3-0.9c0.9,0.1,1.6,0.3,1.9,0.6C29.1,69,29.3,69.3,29.3,69.3z"></path><path display="inline" fill-rule="evenodd" clip-rule="evenodd" d="M28.2,72.8c1.3,0.4,2.2-0.2,2.2-0.2s0.3-0.8-0.2-1.4   c-0.5-0.6-1.8-0.9-2.6-0.7c-0.9,0.2-1.1,0.8-1.1,1C26.3,71.6,26.9,72.4,28.2,72.8z"></path></g><g display="none"><path display="inline" d="M5.2,92l24-24l0.3-0.3l0.4,0.3c0,0,0.3,0.2,0.6,0.5c0.6,0.6,0.8,1,0.8,1.5c0,0.5-0.3,0.9-0.6,1.4   c-0.3,0.4-0.7,0.9-0.7,1.5c0,0.2,0.1,0.4,0.2,0.7c0.1,0.3,0.2,0.6,0.2,0.9c0.1,0.7-0.3,1.1-0.3,1.2L9.5,96.3L5.2,92z M29.6,69.1   L6.7,92l2.8,2.8L29.3,75c0,0,0.1-0.2,0.1-0.4c0-0.2-0.1-0.5-0.2-0.7c-0.1-0.4-0.3-0.8-0.2-1.2c0.1-0.8,0.5-1.4,0.9-1.9   c0.2-0.3,0.4-0.6,0.4-0.8c0-0.1-0.1-0.3-0.5-0.8C29.7,69.2,29.7,69.1,29.6,69.1z"></path><path display="inline" d="M5.8,90.6c0.1,0.1,0.4,0.1,0.5,0l8-8c0.1-0.1,0.1-0.4,0-0.5c-0.1-0.1-0.4-0.1-0.5,0l-8,8   C5.7,90.3,5.7,90.5,5.8,90.6z"></path><path display="inline" d="M7.3,92.2c0.1,0.1,0.4,0.1,0.5,0l8-8c0.1-0.1,0.1-0.4,0-0.5c-0.1-0.1-0.4-0.1-0.5,0l-8,8   C7.2,91.9,7.2,92.1,7.3,92.2z"></path><path display="inline" d="M9.3,94L9.3,94c0.1,0.1,0.4,0.1,0.5,0l8-8c0.1-0.1,0.1-0.4,0-0.5l0,0c-0.1-0.1-0.4-0.1-0.5,0l-8,8   C9.2,93.6,9.2,93.9,9.3,94z"></path><path display="inline" d="M11,95.6c0.1,0.1,0.4,0.1,0.5,0l8-8c0.1-0.1,0.1-0.4,0-0.5c-0.1-0.1-0.4-0.1-0.5,0l-8,8   C10.9,95.3,10.9,95.5,11,95.6z"></path><path display="inline" d="M29.5,74.6c0-0.2-0.1-0.5-0.2-0.8c-0.1-0.4-0.3-0.7-0.2-1.1c0.1-0.8,0.5-1.4,0.9-1.9   c0.2-0.3,0.5-0.7,0.5-0.9c0-0.1,0-0.3-0.6-0.9L29.8,69c-0.1-0.1-0.1-0.2-0.1-0.2c0-0.1,0-0.2,0.1-0.3l62-61.6   C92.3,6.5,93.4,6,94.5,7c0.5,0.5,0.7,1.1,0.7,1.6c0,0.7-0.5,1.2-0.5,1.2l-64.5,65c-0.1,0.1-0.2,0.1-0.4,0.1c0,0-0.1,0-0.1-0.1   C29.6,74.7,29.5,74.6,29.5,74.6z M92.3,7.4L30.5,68.8c0.4,0.5,0.6,0.9,0.6,1.2c0,0.4-0.3,0.9-0.6,1.3c-0.3,0.4-0.7,0.9-0.8,1.5   c0,0.2,0.1,0.5,0.2,0.8c0,0.1,0.1,0.2,0.1,0.3L94.2,9.3c0,0,0.3-0.3,0.3-0.7c0-0.3-0.2-0.7-0.5-1.1C93.2,6.7,92.3,7.4,92.3,7.4z"></path><circle display="inline" cx="27.9" cy="74.8" r="0.7"></circle><path display="inline" d="M24.3,69.3c-0.3-0.4-0.6-1.2,0.2-1.9c0.8-0.7,1.5-0.4,1.8-0.1l2.2,2.2l-2,2L24.3,69.3L24.3,69.3z    M27.6,69.6l-1.7-1.7c-0.1-0.1-0.4-0.3-0.8,0.1c-0.5,0.4-0.2,0.8-0.1,0.9l1.7,1.7L27.6,69.6z"></path><path display="inline" d="M17,83.4l4.7-4.7c0.1-0.1,0.3-0.1,0.4,0l0.9,0.9l0,0c0,0,0.1,0.1,0.1,0.2c0,0.1,0,0.1-0.1,0.2l-4.7,4.7   c-0.1,0.1-0.3,0.1-0.4,0L17,83.7C16.9,83.6,16.9,83.5,17,83.4z M22.4,79.8l-0.6-0.6l-4.3,4.3l0.6,0.6L22.4,79.8z"></path></g><g display="none"><g display="inline"><g><path d="M46.6,55.9L46,55.4c0,0,1.9-1.9,3.9-3.9l2.7-2.8c0.9-1,1.7-1.7,2-2.2c1.3-1.5,3.5-5.7,4.4-7.6c0-0.1,2.8-6.2,3.3-6.9     c0.3-0.5,2.3-2.5,4.3-4.5l0.5-0.5c1.3-1.3,14.8-14.6,15.7-15.5c1-0.9,3.3-2.6,4.8-3.2c0.8-0.4,2.2-0.8,3.2-1.2     c0.7-0.2,1.4-0.5,1.6-0.6c0.3-0.2,0.7-0.4,1-1.8c0.3-1.2-0.1-2.5-0.2-3c0-0.1,0-0.2,0-0.2c0-0.1-0.1-0.3-0.2-0.3     c-0.1,0-0.2,0-0.3,0.1c-0.6,0.3-5.3,3.5-7.2,5c-1.7,1.3-6.5,6.1-8.5,8.1c-3.4,3.4-14.5,14.5-15.8,16c-1.1,1.4-1.9,3.2-3.1,6     c-0.2,0.6-0.5,1.2-0.8,1.9c-1.7,4-2.6,5.5-4.2,7.4c-0.3,0.4-0.9,1-1.8,1.9l-2.7,2.8c-2,2-3.9,3.9-3.9,3.9l-0.5-0.5     c0,0,1.9-1.9,3.9-3.9l2.7-2.8c0.8-0.9,1.4-1.5,1.7-1.9c1.5-1.8,2.4-3.3,4-7.2c0.3-0.7,0.5-1.3,0.8-1.9c1.2-2.9,2-4.7,3.2-6.2     c1.3-1.6,12.4-12.7,15.8-16c2.1-2.1,6.9-6.9,8.6-8.2c1.8-1.4,6.6-4.7,7.3-5.1c0.4-0.2,0.7-0.2,1-0.1c0.4,0.2,0.5,0.6,0.5,0.8     c0,0,0,0.1,0,0.2c0.1,0.5,0.5,1.9,0.2,3.3c-0.3,1.6-0.9,2-1.4,2.3c-0.2,0.1-0.7,0.3-1.7,0.6c-1.1,0.4-2.4,0.8-3.2,1.2     c-1.4,0.6-3.7,2.2-4.6,3.1c-1,0.9-14.4,14.1-15.7,15.5L67.1,28c-1.3,1.3-3.9,3.9-4.2,4.4c-0.3,0.5-2.1,4.3-3.2,6.8     c-0.8,1.8-3,6.2-4.5,7.8c-0.4,0.4-1.1,1.2-2.1,2.2L50.4,52C48.4,54,46.6,55.9,46.6,55.9z"></path></g><g><path fill="none" d="M42.4,60.8l0.2,0.2c0.3-0.3,0.6-0.6,0.8-0.9l-0.1-0.1C42.9,60.2,42.6,60.5,42.4,60.8z"></path><path fill="none" d="M41.6,60.1c0.3-0.3,0.6-0.6,0.9-0.9l-0.3-0.3l-0.9,0.9L41.6,60.1z"></path><path fill="none" d="M40.5,57.2L40.5,57.2c-0.4,0.2-0.7,0.5-1,0.7l0.1,0.1C39.9,57.7,40.2,57.4,40.5,57.2z"></path><path fill="none" d="M40.2,60.8l-0.9,0.9l0.4,0.4c0.3-0.3,0.6-0.6,0.9-0.9L40.2,60.8z"></path><path fill="none" d="M40.5,62.8l0.3,0.3c0.3-0.3,0.5-0.6,0.8-1l-0.2-0.2C41.1,62.2,40.8,62.5,40.5,62.8z"></path><path fill="none" d="M38.5,59l-0.1-0.1c-0.3,0.3-0.7,0.5-1,0.8l0.2,0.2C37.8,59.5,38.2,59.3,38.5,59z"></path><path fill="none" d="M40.5,59l0.9-0.9l-0.2-0.2c-0.3,0.3-0.6,0.6-0.9,0.8L40.5,59z"></path><path fill="none" d="M37.9,65.6c-0.4,0.4-1.2,1.3-2.2,2.5c-2.3,2.6-5.5,6.2-6.4,7.2c-1.5,1.8-6.4,6.6-9.7,9.1     c-0.8,0.6-1.8,1.4-2.8,2.1c-1.9,1.5-3.8,3-4.7,3.6c-0.8,0.5-3.1,2.2-4.7,3.3c0.4-0.2,0.9-0.4,1.2-0.6c0.4-0.2,2.7-1.6,4.7-2.8     c1.6-1,3.3-2,4.4-2.6c2.5-1.5,7.6-5.4,9.8-7.8c2.2-2.3,7.6-9.3,10.6-13.4c0.5-0.6,1-1.3,1.6-2l-0.3-0.3     C38.8,64.6,38.2,65.3,37.9,65.6z"></path><path fill="none" d="M39.2,59.7c-0.3,0.3-0.6,0.6-0.9,0.8l0.3,0.3l0.9-0.9L39.2,59.7z"></path><path fill="none" d="M6.1,93c1.5-1.1,4.5-3.2,5.4-3.8c0.8-0.6,2.8-2.1,4.6-3.5c1-0.8,1.9-1.5,2.8-2.1c3.2-2.5,8-7.1,9.5-8.9     c0.9-1.1,4.1-4.7,6.4-7.3c1-1.1,1.9-2.1,2.2-2.5c0.3-0.3,0.9-1,1.6-1.8l-0.5-0.5L6.1,93z"></path><path fill="none" d="M33.5,64.6c-1.1,0.8-2.4,1.9-3.9,3c-3.6,2.7-8.1,6.1-10.6,8.4c-2.7,2.5-7.3,7.7-9.4,10.7     c-0.9,1.2-2.9,3.9-4,5.3l31.9-30.2l-0.3-0.3C35.8,62.7,34.5,63.8,33.5,64.6z"></path><path fill="none" d="M26,67.7l-1.4,1c-2,1.4-6.1,4.5-8.2,6.6c-2.1,2.1-5.7,6.6-6.4,7.7c-0.5,0.8-2.9,4.9-4.4,7.4     c1.1-1.4,2.5-3.3,3.2-4.3c2.2-3,6.8-8.3,9.6-10.9c2.5-2.3,7-5.8,10.7-8.5c1.5-1.1,2.8-2.1,3.9-3c1-0.8,2.3-1.8,3.6-3l-0.2-0.2     C33.8,62.4,28.7,65.8,26,67.7z"></path><path d="M43.8,54c0.2-0.2,0.2-0.5,0-0.8c-0.2-0.2-0.5-0.2-0.8,0c0,0-0.6,0.6-1.6,1.4l0.8,0.8C43.1,54.6,43.7,54,43.8,54z"></path><path d="M40.4,57.1l-0.8-0.8c-0.3,0.3-0.6,0.6-0.9,0.8l0.8,0.8C39.8,57.6,40.1,57.4,40.4,57.1z"></path><path d="M38.3,58.9l-0.8-0.8c-0.3,0.3-0.7,0.5-1,0.8l0.8,0.8C37.7,59.4,38,59.1,38.3,58.9z"></path><path d="M5.5,90.4C7,87.9,9.4,83.8,9.9,83c0.7-1.1,4.3-5.6,6.4-7.7c2.2-2.2,6.2-5.2,8.2-6.6l1.4-1c2.8-1.9,7.8-5.3,10.2-7.2     l-0.8-0.8c-2.5,1.8-7.4,5.2-10.1,7l-1.4,1c-2.1,1.4-6.2,4.6-8.4,6.8c-2.2,2.2-5.8,6.7-6.5,7.9c-0.7,1.1-5.3,9-5.5,9.4     c-0.1,0.3-0.1,0.6,0.2,0.7c0.1,0,0.2,0.1,0.3,0.1c0,0,0,0,0,0c0-0.1,0-0.2,0.1-0.3C4.1,92.3,4.7,91.5,5.5,90.4z"></path><path d="M45.5,55.7c0.2-0.2,0.2-0.5,0-0.8c-0.2-0.2-0.5-0.2-0.8,0l-1.6,1.5l0.8,0.8L45.5,55.7z"></path><path d="M6.1,93l32.1-30.4l-0.8-0.8L5.6,92c-0.4,0.6-0.7,1-0.7,1c-0.1,0.1-0.3,0.2-0.4,0.2c0,0,0,0,0,0c-0.1,0.2-0.1,0.4,0.1,0.6     C4.7,93.9,4.8,94,4.9,94c0.1,0,0.1,0,0.1,0c0-0.1,0.1-0.2,0.2-0.3C5.3,93.6,5.7,93.4,6.1,93z"></path><polygon points="41.3,59.8 42.2,58.9 41.4,58.1 40.5,59    "></polygon><polygon points="39.5,60 38.6,60.9 39.3,61.6 40.2,60.8    "></polygon><path d="M47.2,56.6c-0.2-0.2-0.5-0.2-0.8,0c0,0-0.6,0.6-1.4,1.5l0.8,0.8c0.9-0.9,1.4-1.6,1.4-1.6C47.4,57.2,47.4,56.8,47.2,56.6z     "></path><path d="M42.5,61l0.8,0.8c0.3-0.3,0.6-0.6,0.8-0.9l-0.8-0.8C43.1,60.4,42.8,60.7,42.5,61z"></path><path d="M40.8,63.1l0.8,0.8c0.3-0.3,0.5-0.6,0.8-1l-0.8-0.8C41.3,62.4,41,62.7,40.8,63.1z"></path><path d="M38.3,66.2c-3,4.1-8.4,11.1-10.6,13.4c-2.2,2.3-7.3,6.3-9.8,7.8C16.8,88,15.1,89,13.5,90c-2,1.2-4.3,2.6-4.7,2.8     c-0.3,0.1-0.7,0.3-1.2,0.6c-0.9,0.7-1.6,1.1-1.6,1.2c-0.1,0.1-0.2,0.1-0.3,0.1c0,0.1,0,0.2,0,0.3c0.1,0.2,0.3,0.3,0.5,0.3     c0.1,0,0.2,0,0.3-0.1c0,0,1.9-1,2.7-1.4c0.5-0.2,2.2-1.2,4.9-2.9c1.6-1,3.3-2,4.4-2.6c2.6-1.5,7.8-5.6,10.1-7.9     c2.4-2.5,8.2-10,10.7-13.5c0.4-0.6,0.9-1.2,1.5-1.9l-0.8-0.8C39.3,64.9,38.7,65.6,38.3,66.2z"></path><path d="M5.6,92c1.1-1.4,3.1-4.1,4-5.3c2.1-3,6.7-8.2,9.4-10.7c2.5-2.3,7-5.7,10.6-8.4c1.5-1.1,2.8-2.2,3.9-3     c1-0.8,2.3-1.9,3.7-3.1l-0.8-0.8c-1.3,1.1-2.6,2.2-3.6,3c-1.1,0.8-2.4,1.9-3.9,3c-3.6,2.8-8.2,6.2-10.7,8.5     c-2.7,2.6-7.4,7.8-9.6,10.9c-0.7,1-2.1,2.8-3.2,4.3c-0.6,1.1-1.1,1.9-1.1,1.9c-0.1,0.2-0.3,0.3-0.5,0.3c0,0.2,0,0.4,0.2,0.5     c0.1,0.1,0.2,0.1,0.3,0.1c0-0.1,0.1-0.1,0.1-0.2L5.6,92z"></path><path d="M40.3,58.8c0.3-0.3,0.6-0.6,0.9-0.8l-0.8-0.8c-0.3,0.3-0.6,0.6-0.9,0.8L40.3,58.8z"></path><path d="M38.5,59c-0.3,0.3-0.6,0.6-0.9,0.8l0.8,0.8c0.3-0.3,0.6-0.6,0.9-0.8L38.5,59z"></path><path d="M44.6,54.8c0.2-0.2,0.2-0.5,0-0.8c-0.2-0.2-0.5-0.2-0.8,0c0,0-0.6,0.6-1.6,1.5l0.8,0.8C44,55.4,44.6,54.8,44.6,54.8z"></path><path d="M5.5,90.4c-0.8,1.1-1.5,1.9-1.5,1.9C4,92.4,4,92.5,4,92.6c0.2,0,0.4-0.1,0.5-0.3C4.4,92.3,4.9,91.5,5.5,90.4z"></path><path d="M4.9,93c0,0,0.3-0.4,0.7-1l-1.1,1c-0.1,0.1-0.1,0.1-0.1,0.2c0,0,0,0,0,0C4.6,93.2,4.8,93.1,4.9,93z"></path><path d="M5.9,94.2c0.1,0,0.8-0.4,1.6-0.8c1.6-1.1,3.8-2.7,4.7-3.3c0.9-0.6,2.8-2.1,4.7-3.6c1-0.8,1.9-1.5,2.8-2.1     c3.3-2.5,8.2-7.3,9.7-9.1c0.9-1.1,4.1-4.6,6.4-7.2c1-1.1,1.9-2.1,2.2-2.5c0.3-0.3,0.8-0.9,1.6-1.7l-0.8-0.8     c-0.8,0.8-1.3,1.4-1.6,1.8c-0.4,0.4-1.2,1.3-2.2,2.5c-2.3,2.6-5.5,6.2-6.4,7.3C27,76.4,22.2,81,19,83.5c-0.8,0.6-1.8,1.4-2.8,2.1     c-1.9,1.5-3.8,3-4.6,3.5c-1,0.7-4,2.8-5.4,3.8l-0.8,0.8c-0.1,0.1-0.1,0.1-0.2,0.1c0,0.1,0,0.3,0.1,0.4c0.1,0.1,0.3,0.2,0.4,0.2     c0,0,0,0,0.1,0C5.7,94.4,5.8,94.3,5.9,94.2z"></path><path d="M39.7,62l0.8,0.8c0.3-0.3,0.6-0.6,0.9-0.9l-0.8-0.8C40.3,61.4,40,61.7,39.7,62z"></path><path d="M42.4,60.8c0.3-0.3,0.6-0.6,0.9-0.9l-0.8-0.8c-0.3,0.3-0.6,0.6-0.9,0.9L42.4,60.8z"></path><path d="M46.4,56.6c0.2-0.2,0.2-0.5,0-0.8c-0.2-0.2-0.5-0.2-0.8,0c-0.1,0.1-0.6,0.7-1.4,1.5l0.8,0.8     C45.8,57.2,46.4,56.6,46.4,56.6z"></path><path d="M6.1,93c-0.5,0.3-0.8,0.6-0.9,0.6c-0.1,0.1-0.2,0.2-0.2,0.3c0.1,0,0.2-0.1,0.2-0.1L6.1,93z"></path><path d="M7.5,93.3c-0.8,0.4-1.6,0.8-1.6,0.8c-0.2,0.1-0.2,0.2-0.3,0.4c0.1,0,0.2,0,0.3-0.1C5.9,94.5,6.6,94,7.5,93.3z"></path></g></g></g><g display="none"><g display="inline"><defs><path id="cd" d="M-153,23.9l34,2.8l43.1-6.2l77.1,0.8l28.1,4l26.8-5l21.5,2l1.7,43.5c0,0-12.8,81.5-17.2,121.2     c4,43.4,25,116.2,25,116.2l0.4,44.1l-35.4,1l-31.4,2.8l-62.9-0.1l-51.4-1.6l-19.8,2l-33.4-2.9l-0.5-39.2c0,0,5-75.9,17.4-122.6     c-14.1-31.8-23.5-117.4-23.5-117.4L-153,23.9z"></path></defs><clipPath id="cc"><use overflow="visible"></use></clipPath><rect x="-158.4" y="15.4" clip-path="url(#cc)" fill="currentColor" width="251" height="341"></rect></g><path display="inline" fill="currentColor" stroke="currentColor" stroke-width="12" stroke-linecap="round" stroke-linejoin="round" stroke-miterlimit="10" d="   M-153,23.9l34,2.8l43.1-6.2l77.1,0.8l28.1,4l26.8-5l21.5,2l1.7,43.5c0,0-12.8,81.5-17.2,121.2c4,43.4,25,116.2,25,116.2l0.4,44.1   l-35.4,1l-31.4,2.8l-62.9-0.1l-51.4-1.6l-19.8,2l-33.4-2.9l-0.5-39.2c0,0,5-75.9,17.4-122.6c-14.1-31.8-23.5-117.4-23.5-117.4   L-153,23.9z"></path><line display="inline" fill="currentColor" stroke="currentColor" stroke-width="12" stroke-linecap="round" stroke-miterlimit="10" x1="-151.7" y1="75" x2="34.2" y2="75"></line><path display="inline" fill="currentColor" stroke="currentColor" stroke-width="8" stroke-linecap="round" stroke-miterlimit="10" d="   M16.9,41.5c0,0,0,0.4,0,1v14"></path><path display="inline" fill="currentColor" stroke="currentColor" stroke-width="8" stroke-linecap="round" stroke-miterlimit="10" d="   M-2.1,41.5c0,0,0,0.4,0,1v14"></path><path display="inline" fill="currentColor" stroke="currentColor" stroke-width="8" stroke-linecap="round" stroke-miterlimit="10" d="   M36.9,41.5c0,0,0,0.4,0,1v14"></path><path display="inline" fill="currentColor" stroke="currentColor" stroke-width="8" stroke-linecap="round" stroke-miterlimit="10" d="   M58.9,41.5c0,0,0,0.4,0,1v14"></path></g><g display="none"><g display="inline"><defs><path id="cb" d="M-153,23.9l34,2.8l43.1-6.2l77.1,0.8l28.1,4l26.8-5l21.5,2l1.7,43.5c0,0-12.8,81.5-17.2,121.2     c4,43.4,25,116.2,25,116.2l0.4,44.1l-35.4,1l-31.4,2.8l-62.9-0.1l-51.4-1.6l-19.8,2l-33.4-2.9l-0.5-39.2c0,0,5-75.9,17.4-122.6     c-14.1-31.8-23.5-117.4-23.5-117.4L-153,23.9z"></path></defs><clipPath id="ca"><use overflow="visible"></use></clipPath><rect x="-158.3" y="15.4" clip-path="url(#ca)" fill="currentColor" width="251" height="341"></rect></g><path display="inline" fill="currentColor" stroke="currentColor" stroke-width="12" stroke-linecap="round" stroke-linejoin="round" stroke-miterlimit="10" d="   M-153,23.9l34,2.8l43.1-6.2l77.1,0.8l28.1,4l26.8-5l21.5,2l1.7,43.5c0,0-12.8,81.5-17.2,121.2c4,43.4,25,116.2,25,116.2l0.4,44.1   l-35.4,1l-31.4,2.8l-62.9-0.1l-51.4-1.6l-19.8,2l-33.4-2.9l-0.5-39.2c0,0,5-75.9,17.4-122.6c-14.1-31.8-23.5-117.4-23.5-117.4   L-153,23.9z"></path><line display="inline" fill="currentColor" stroke="currentColor" stroke-width="12" stroke-linecap="round" stroke-miterlimit="10" x1="-151.6" y1="75" x2="34.3" y2="75"></line><path display="inline" fill="currentColor" stroke="currentColor" stroke-width="8" stroke-linecap="round" stroke-miterlimit="10" d="M17,41.5   c0,0,0,0.4,0,1v14"></path><path display="inline" fill="currentColor" stroke="currentColor" stroke-width="8" stroke-linecap="round" stroke-miterlimit="10" d="M-2,41.5   c0,0,0,0.4,0,1v14"></path><path display="inline" fill="currentColor" stroke="currentColor" stroke-width="8" stroke-linecap="round" stroke-miterlimit="10" d="M37,41.5   c0,0,0,0.4,0,1v14"></path><path display="inline" fill="currentColor" stroke="currentColor" stroke-width="8" stroke-linecap="round" stroke-miterlimit="10" d="M59,41.5   c0,0,0,0.4,0,1v14"></path></g><g display="none"><g display="inline"><defs><path id="bz" d="M-153,23.9l34,2.8l43.1-6.2l77.1,0.8l28.1,4l26.8-5l21.5,2l1.7,43.5c0,0-12.8,81.5-17.2,121.2     c4,43.4,25,116.2,25,116.2l0.4,44.1l-35.4,1l-31.4,2.8l-62.9-0.1l-51.4-1.6l-19.8,2l-33.4-2.9l-0.5-39.2c0,0,5-75.9,17.4-122.6     c-14.1-31.8-23.5-117.4-23.5-117.4L-153,23.9z"></path></defs><clipPath id="by"><use overflow="visible"></use></clipPath><rect x="-158.4" y="15.4" clip-path="url(#by)" fill="currentColor" width="251" height="341"></rect></g><path display="inline" fill="currentColor" stroke="currentColor" stroke-width="12" stroke-linecap="round" stroke-linejoin="round" stroke-miterlimit="10" d="   M-153,23.9l34,2.8l43.1-6.2l77.1,0.8l28.1,4l26.8-5l21.5,2l1.7,43.5c0,0-12.8,81.5-17.2,121.2c4,43.4,25,116.2,25,116.2l0.4,44.1   l-35.4,1l-31.4,2.8l-62.9-0.1l-51.4-1.6l-19.8,2l-33.4-2.9l-0.5-39.2c0,0,5-75.9,17.4-122.6c-14.1-31.8-23.5-117.4-23.5-117.4   L-153,23.9z"></path><line display="inline" fill="currentColor" stroke="currentColor" stroke-width="12" stroke-linecap="round" stroke-miterlimit="10" x1="-151.7" y1="75" x2="34.2" y2="75"></line><path display="inline" fill="currentColor" stroke="currentColor" stroke-width="8" stroke-linecap="round" stroke-miterlimit="10" d="   M16.9,41.5c0,0,0,0.4,0,1v14"></path><path display="inline" fill="currentColor" stroke="currentColor" stroke-width="8" stroke-linecap="round" stroke-miterlimit="10" d="   M-2.1,41.5c0,0,0,0.4,0,1v14"></path><path display="inline" fill="currentColor" stroke="currentColor" stroke-width="8" stroke-linecap="round" stroke-miterlimit="10" d="   M36.9,41.5c0,0,0,0.4,0,1v14"></path><path display="inline" fill="currentColor" stroke="currentColor" stroke-width="8" stroke-linecap="round" stroke-miterlimit="10" d="   M58.9,41.5c0,0,0,0.4,0,1v14"></path></g><g display="none"><g display="inline"><defs><path id="bx" d="M-153,23.9l34,2.8l43.1-6.2l77.1,0.8l28.1,4l26.8-5l21.5,2l1.7,43.5c0,0-12.8,81.5-17.2,121.2     c4,43.4,25,116.2,25,116.2l0.4,44.1l-35.4,1l-31.4,2.8l-62.9-0.1l-51.4-1.6l-19.8,2l-33.4-2.9l-0.5-39.2c0,0,5-75.9,17.4-122.6     c-14.1-31.8-23.5-117.4-23.5-117.4L-153,23.9z"></path></defs><clipPath id="bw"><use overflow="visible"></use></clipPath><rect x="-158.3" y="15.4" clip-path="url(#bw)" fill="currentColor" width="251" height="341"></rect></g><path display="inline" fill="currentColor" stroke="currentColor" stroke-width="12" stroke-linecap="round" stroke-linejoin="round" stroke-miterlimit="10" d="   M-153,23.9l34,2.8l43.1-6.2l77.1,0.8l28.1,4l26.8-5l21.5,2l1.7,43.5c0,0-12.8,81.5-17.2,121.2c4,43.4,25,116.2,25,116.2l0.4,44.1   l-35.4,1l-31.4,2.8l-62.9-0.1l-51.4-1.6l-19.8,2l-33.4-2.9l-0.5-39.2c0,0,5-75.9,17.4-122.6c-14.1-31.8-23.5-117.4-23.5-117.4   L-153,23.9z"></path><line display="inline" fill="currentColor" stroke="currentColor" stroke-width="12" stroke-linecap="round" stroke-miterlimit="10" x1="-151.6" y1="75" x2="34.3" y2="75"></line><path display="inline" fill="currentColor" stroke="currentColor" stroke-width="8" stroke-linecap="round" stroke-miterlimit="10" d="M17,41.5   c0,0,0,0.4,0,1v14"></path><path display="inline" fill="currentColor" stroke="currentColor" stroke-width="8" stroke-linecap="round" stroke-miterlimit="10" d="M-2,41.5   c0,0,0,0.4,0,1v14"></path><path display="inline" fill="currentColor" stroke="currentColor" stroke-width="8" stroke-linecap="round" stroke-miterlimit="10" d="M37,41.5   c0,0,0,0.4,0,1v14"></path><path display="inline" fill="currentColor" stroke="currentColor" stroke-width="8" stroke-linecap="round" stroke-miterlimit="10" d="M59,41.5   c0,0,0,0.4,0,1v14"></path></g><g display="none"><g display="inline"><defs><path id="bv" d="M-34.7-0.7c0.8-3.1,2.4-6.3,4.8-9.2c6.4-7.7,16.2-10.1,21.7-5.5c5,4.2,4.9,12.7,0.1,19.9     c3.4,5.3,3,12.6-1.5,17.8c-5.4,6.5-14.8,7.5-20.9,2.3c-2-1.7-3.4-3.9-4.2-6.2c-3.3,1.1-7,0.6-9.9-1.8c-4.3-3.6-4.9-10-1.3-14.3     C-43.1-1-38.6-2.1-34.7-0.7z"></path></defs><clipPath id="bu"><use overflow="visible"></use></clipPath><rect x="-53.3" y="-22.7" clip-path="url(#bu)" fill="currentColor" width="53.7" height="55.7"></rect></g><g display="inline"><defs><path id="bt" d="M6.2,72.2c-1.4,1.4-3,2.5-4.9,3.3c-7.8,3.3-16.7-0.3-20-8.1c-3.3-7.8,0.3-16.7,8.1-20     c0.3-0.1,0.6-0.2,0.8-0.3c0.4-4.9,3.5-9.4,8.4-11.5c7-3,15.1,0.3,18.1,7.3c1.6,3.7,1.4,7.7-0.1,11c3.2,0.8,6.1,3,7.5,6.3     c2.4,5.5-0.2,11.9-5.8,14.3C14,76.5,9.2,75.4,6.2,72.2z"></path></defs><clipPath id="bs"><use overflow="visible"></use></clipPath><rect x="-25" y="29.6" clip-path="url(#bs)" fill="currentColor" width="54.8" height="52.2"></rect></g><path display="inline" fill="currentColor" stroke="currentColor" stroke-width="6" stroke-linecap="round" stroke-linejoin="round" stroke-miterlimit="10" d="   M6.2,72.2c-1.4,1.4-3,2.5-4.9,3.3c-7.8,3.3-16.7-0.3-20-8.1c-3.3-7.8,0.3-16.7,8.1-20c0.3-0.1,0.6-0.2,0.8-0.3   c0.4-4.9,3.5-9.4,8.4-11.5c7-3,15.1,0.3,18.1,7.3c1.6,3.7,1.4,7.7-0.1,11c3.2,0.8,6.1,3,7.5,6.3c2.4,5.5-0.2,11.9-5.8,14.3   C14,76.5,9.2,75.4,6.2,72.2z"></path><g display="inline"><defs><path id="br" d="M-133.7,91.5c-0.5-4.9,3-8.9,8-8.9H48c5,0,8.5,4,8,8.9L28.9,335.1c-0.5,4.9-5,8.9-10,8.9H-96.7     c-5,0-9.4-4-10-8.9L-133.7,91.5z"></path></defs><clipPath id="bq"><use overflow="visible"></use></clipPath><path clip-path="url(#bq)" fill="currentColor" stroke="currentColor" stroke-width="24" stroke-linecap="round" stroke-linejoin="round" stroke-miterlimit="10" d="    M-133.7,91.5c-0.5-4.9,3-8.9,8-8.9H48c5,0,8.5,4,8,8.9L28.9,335.1c-0.5,4.9-5,8.9-10,8.9H-96.7c-5,0-9.4-4-10-8.9L-133.7,91.5z"></path></g><line display="inline" fill="currentColor" stroke="currentColor" stroke-width="8" stroke-linecap="square" stroke-miterlimit="10" x1="-131.1" y1="336" x2="75.2" y2="80.4"></line><line display="inline" fill="currentColor" stroke="currentColor" stroke-width="8" stroke-linecap="square" stroke-miterlimit="10" x1="-131.1" y1="292.5" x2="75.2" y2="36.8"></line><line display="inline" fill="currentColor" stroke="currentColor" stroke-width="8" stroke-linecap="square" stroke-miterlimit="10" x1="-131.1" y1="248.9" x2="75.2" y2="-6.8"></line><line display="inline" fill="currentColor" stroke="currentColor" stroke-width="8" stroke-linecap="square" stroke-miterlimit="10" x1="-131.1" y1="205.3" x2="75.2" y2="-50.3"></line><line display="inline" fill="currentColor" stroke="currentColor" stroke-width="8" stroke-linecap="square" stroke-miterlimit="10" x1="-131.1" y1="161.7" x2="75.2" y2="-93.9"></line><rect x="-135" y="82" display="inline" fill="none" width="192" height="263"></rect><rect x="-135" y="82" display="inline" fill="none" width="192" height="263"></rect><path display="inline" fill-rule="evenodd" clip-rule="evenodd" fill="none" d="M-133.6,92.5c-0.6-5.5,3.4-9.9,8.9-9.9H47   c5.5,0,9.5,4.5,8.9,9.9L29.1,334.1c-0.6,5.5-5.6,9.9-11.1,9.9H-95.7c-5.5,0-10.5-4.5-11.1-9.9L-133.6,92.5z"></path><g display="inline"><defs><path id="bp" d="M31.5,68.8c-2-2.5-3.6-5.7-4.4-9.3c-2.3-9.8,1.6-19,8.7-20.6c6.3-1.5,13,3.7,16,11.9     c6.3,0.5,11.8,5.2,13.4,11.9c1.9,8.2-2.9,16.3-10.7,18.1c-2.6,0.6-5.2,0.4-7.5-0.4c-1.1,3.3-3.8,5.9-7.4,6.8     c-5.5,1.3-10.9-2.1-12.2-7.6C26.2,75.3,28.1,71.1,31.5,68.8z"></path></defs><clipPath id="bo"><use overflow="visible"></use></clipPath><rect x="21.4" y="33.6" clip-path="url(#bo)" fill="currentColor" width="49.1" height="58.8"></rect></g><path display="inline" fill="currentColor" stroke="currentColor" stroke-width="8" stroke-linejoin="round" stroke-miterlimit="10" d="   M31.5,68.8c-2-2.5-3.6-5.7-4.4-9.3c-2.3-9.8,1.6-19,8.7-20.6c6.3-1.5,13,3.7,16,11.9c6.3,0.5,11.8,5.2,13.4,11.9   c1.9,8.2-2.9,16.3-10.7,18.1c-2.6,0.6-5.2,0.4-7.5-0.4c-1.1,3.3-3.8,5.9-7.4,6.8c-5.5,1.3-10.9-2.1-12.2-7.6   C26.2,75.3,28.1,71.1,31.5,68.8z"></path><g display="inline"><defs><path id="bn" d="M-1.4,60.1c-0.7-1.8-1.1-3.8-1.1-5.8c0-8.4,6.8-15.3,15.3-15.3C21.1,39,28,45.8,28,54.2     c0,0.3,0,0.6,0,0.9c4.3,2.3,7.3,6.9,7.3,12.2c0,7.6-6.2,13.8-13.8,13.8c-4,0-7.6-1.7-10.1-4.4c-2,2.7-5.2,4.4-8.8,4.4     c-6,0-10.9-4.9-10.9-10.9C-8.4,65.6-5.5,61.6-1.4,60.1z"></path></defs><clipPath id="bm"><use overflow="visible"></use></clipPath><rect x="-13.4" y="34" clip-path="url(#bm)" fill="currentColor" width="53.6" height="52.1"></rect></g><path display="inline" fill="currentColor" stroke="currentColor" stroke-width="8" stroke-linecap="round" stroke-linejoin="round" stroke-miterlimit="10" d="   M-1.4,60.1c-0.7-1.8-1.1-3.8-1.1-5.8c0-8.4,6.8-15.3,15.3-15.3C21.1,39,28,45.8,28,54.2c0,0.3,0,0.6,0,0.9   c4.3,2.3,7.3,6.9,7.3,12.2c0,7.6-6.2,13.8-13.8,13.8c-4,0-7.6-1.7-10.1-4.4c-2,2.7-5.2,4.4-8.8,4.4c-6,0-10.9-4.9-10.9-10.9   C-8.4,65.6-5.5,61.6-1.4,60.1z"></path><g display="inline"><defs><path id="bl" d="M9.1,37.4c-1.4,1.4-3,2.5-4.9,3.3c-7.8,3.3-16.7-0.3-20-8.1c-3.3-7.8,0.3-16.7,8.1-20     c0.3-0.1,0.6-0.2,0.8-0.3c0.4-4.9,3.5-9.4,8.4-11.5c7-3,15.1,0.3,18.1,7.3c1.6,3.7,1.4,7.7-0.1,11c3.2,0.8,6.1,3,7.5,6.3     c2.4,5.5-0.2,11.9-5.8,14.3C16.9,41.6,12.1,40.5,9.1,37.4z"></path></defs><clipPath id="bk"><use overflow="visible"></use></clipPath><rect x="-22.1" y="-5.3" clip-path="url(#bk)" fill="currentColor" width="54.8" height="52.2"></rect></g><path display="inline" fill="currentColor" stroke="currentColor" stroke-width="8" stroke-linecap="round" stroke-linejoin="round" stroke-miterlimit="10" d="   M9.1,37.4c-1.4,1.4-3,2.5-4.9,3.3c-7.8,3.3-16.7-0.3-20-8.1c-3.3-7.8,0.3-16.7,8.1-20c0.3-0.1,0.6-0.2,0.8-0.3   c0.4-4.9,3.5-9.4,8.4-11.5c7-3,15.1,0.3,18.1,7.3c1.6,3.7,1.4,7.7-0.1,11c3.2,0.8,6.1,3,7.5,6.3c2.4,5.5-0.2,11.9-5.8,14.3   C16.9,41.6,12.1,40.5,9.1,37.4z"></path><g display="inline"><defs><path id="bj" d="M-26.1,61.4c-3.3-3.1-7.7-4.6-12-3.6c-7.4,1.7-11.8,10.1-9.9,18.7c2,8.6,9.6,14.2,17,12.5     c0.8-0.2,1.6-0.5,2.4-0.8c0,0.8,0.1,1.6,0.3,2.4c1.5,6.6,9.4,10.5,17.6,8.6c8.2-1.9,13.5-8.7,12.1-15.3C9.2,80,13.6,72,11.8,64.2     c-2-8.5-10.6-13.9-20-13.1c-2.5-2.2-6.1-3.3-9.7-2.5C-23.6,50-27.2,55.6-26.1,61.4z"></path></defs><clipPath id="bi"><use overflow="visible"></use></clipPath><rect x="-53.4" y="43.4" clip-path="url(#bi)" fill="currentColor" width="70.6" height="61.3"></rect></g><path display="inline" fill="currentColor" stroke="currentColor" stroke-width="8" stroke-linejoin="round" stroke-miterlimit="10" d="   M-26.1,61.4c-3.3-3.1-7.7-4.6-12-3.6c-7.4,1.7-11.8,10.1-9.9,18.7c2,8.6,9.6,14.2,17,12.5c0.8-0.2,1.6-0.5,2.4-0.8   c0,0.8,0.1,1.6,0.3,2.4c1.5,6.6,9.4,10.5,17.6,8.6c8.2-1.9,13.5-8.7,12.1-15.3C9.2,80,13.6,72,11.8,64.2c-2-8.5-10.6-13.9-20-13.1   c-2.5-2.3-6.1-3.3-9.7-2.5C-23.6,50-27.2,55.6-26.1,61.4z"></path><g display="inline"><defs><path id="bh" d="M4,112c-4.1-0.2-7.8-3.1-8.8-7.3c-1.2-5.1,2-10.2,7.1-11.3c0.4-0.1,0.8-0.2,1.3-0.2     c-1.7-1.8-3-4.1-3.6-6.7C-1.9,78.6,3,70.8,10.8,69c5.8-1.3,11.6,1,14.9,5.5c7-1.5,13.8,2.9,15.4,9.9c1.2,5.1-0.8,10.1-4.6,13.2     c0.3,0.6,0.5,1.2,0.6,1.9c1.7,7.4-4.8,15.3-14.6,17.5C15,118.7,7.6,116.5,4,112z"></path></defs><clipPath id="bg"><use overflow="visible"></use></clipPath><rect x="-10.1" y="63.6" clip-path="url(#bg)" fill="currentColor" width="56.6" height="58.9"></rect></g><path display="inline" fill="currentColor" stroke="currentColor" stroke-width="8" stroke-linecap="round" stroke-linejoin="round" stroke-miterlimit="10" d="   M4,112c-4.1-0.2-7.8-3.1-8.8-7.3c-1.2-5.1,2-10.2,7.1-11.3c0.4-0.1,0.8-0.2,1.3-0.2c-1.7-1.8-3-4.1-3.6-6.7   C-1.9,78.6,3,70.8,10.8,69c5.8-1.3,11.6,1,14.9,5.5l0,0c7-1.5,13.8,2.9,15.4,9.9c1.2,5.1-0.8,10.1-4.6,13.2   c0.3,0.6,0.5,1.2,0.6,1.9c1.7,7.4-4.8,15.3-14.6,17.5C15,118.7,7.6,116.5,4,112z"></path><path display="inline" fill="currentColor" stroke="currentColor" stroke-width="8" stroke-linecap="round" stroke-miterlimit="10" d="   M26.9,76.1c0,0,3.3,5.8-2.3,11.7c-5.7,6-11.2,3.7-11.2,3.7"></path><path display="inline" fill="currentColor" stroke="currentColor" stroke-width="8" stroke-linecap="round" stroke-miterlimit="10" d="   M19.6,20.8c0,0-2.4,6.2-10.6,5.6C0.8,25.7-0.9,20-0.9,20"></path></g><g display="none"><g display="inline"><defs><path id="bf" d="M-61.7,44.6c0-6.2,5-11.3,11.3-11.3h45.4c6.2,0,11.3,5,11.3,11.3v45.3c0,6.2-5,11.3-11.3,11.3h-45.4     c-6.2,0-11.3-5-11.3-11.3V44.6z M-78.7,16.3H23.2v101.9H-78.7V16.3z"></path></defs><clipPath id="be"><use overflow="visible"></use></clipPath><path clip-path="url(#be)" fill="currentColor" stroke="currentColor" stroke-width="15.04" stroke-miterlimit="10" d="M-61.7,44.6    c0-6.2,5-11.3,11.3-11.3h45.4c6.2,0,11.3,5,11.3,11.3v45.3c0,6.2-5,11.3-11.3,11.3h-45.4c-6.2,0-11.3-5-11.3-11.3V44.6z"></path></g><g display="inline"><defs><path id="bd" d="M-61.7,105.9c0-6.2,5-11.3,11.3-11.3h45.4c6.2,0,11.3,5,11.3,11.3v45.3c0,6.2-5,11.3-11.3,11.3h-45.4     c-6.2,0-11.3-5-11.3-11.3V105.9z M-78.7,77.6H23.2v101.9H-78.7V77.6z"></path></defs><clipPath id="bc"><use overflow="visible"></use></clipPath><path clip-path="url(#bc)" fill="currentColor" stroke="currentColor" stroke-width="15.04" stroke-miterlimit="10" d="M-61.7,105.9    c0-6.2,5-11.3,11.3-11.3h45.4c6.2,0,11.3,5,11.3,11.3v45.3c0,6.2-5,11.3-11.3,11.3h-45.4c-6.2,0-11.3-5-11.3-11.3V105.9z"></path></g><g display="inline"><defs><path id="bb" d="M-0.4,44.6c0-6.2,5-11.3,11.3-11.3h45.4c6.2,0,11.3,5,11.3,11.3v45.3c0,6.2-5,11.3-11.3,11.3H10.9     c-6.2,0-11.3-5-11.3-11.3V44.6z M-17.4,16.3H84.5v101.9H-17.4V16.3z"></path></defs><clipPath id="ba"><use overflow="visible"></use></clipPath><path clip-path="url(#ba)" fill="currentColor" stroke="currentColor" stroke-width="15.04" stroke-miterlimit="10" d="M-0.4,44.6    c0-6.2,5-11.3,11.3-11.3h45.4c6.2,0,11.3,5,11.3,11.3v45.3c0,6.2-5,11.3-11.3,11.3H10.9c-6.2,0-11.3-5-11.3-11.3V44.6z"></path></g><g display="inline"><defs><path id="az" d="M-0.4,105.9c0-6.2,5-11.3,11.3-11.3h45.4c6.2,0,11.3,5,11.3,11.3v45.3c0,6.2-5,11.3-11.3,11.3H10.9     c-6.2,0-11.3-5-11.3-11.3V105.9z M-17.4,77.6H84.5v101.9H-17.4V77.6z"></path></defs><clipPath id="ay"><use overflow="visible"></use></clipPath><path clip-path="url(#ay)" fill="currentColor" stroke="currentColor" stroke-width="15.04" stroke-miterlimit="10" d="M-0.4,105.9    c0-6.2,5-11.3,11.3-11.3h45.4c6.2,0,11.3,5,11.3,11.3v45.3c0,6.2-5,11.3-11.3,11.3H10.9c-6.2,0-11.3-5-11.3-11.3V105.9z"></path></g><g display="inline"><defs><path id="ax" d="M-65.5,44.6v45.3c0,8.3,6.7,15,15,15h45.4c8.3,0,15-6.7,15-15V44.6c0-8.3-6.7-15-15-15h-45.4     C-58.8,29.5-65.5,36.3-65.5,44.6z M-58,44.6c0-4.2,3.4-7.5,7.5-7.5h45.4c4.1,0,7.5,3.4,7.5,7.5v45.3c0,4.2-3.4,7.5-7.5,7.5h-45.4     c-4.1,0-7.5-3.4-7.5-7.5V44.6z M-85.5,9.5H29.9v115.4H-85.5V9.5z"></path></defs><clipPath id="aw"><use overflow="visible"></use></clipPath><g clip-path="url(#aw)"><defs><path id="av" d="M-61.7,44.6c0-6.2,5-11.3,11.3-11.3h45.4c6.2,0,11.3,5,11.3,11.3v45.3c0,6.2-5,11.3-11.3,11.3h-45.4      c-6.2,0-11.3-5-11.3-11.3V44.6z"></path></defs><clipPath id="au"><use overflow="visible"></use></clipPath><path clip-path="url(#au)" fill-rule="evenodd" clip-rule="evenodd" fill="currentColor" d="M-61.7,44.6     c0-6.2,5-11.3,11.3-11.3h45.4c6.2,0,11.3,5,11.3,11.3v45.3c0,6.2-5,11.3-11.3,11.3h-45.4c-6.2,0-11.3-5-11.3-11.3V44.6z"></path></g></g><g display="inline"><defs><path id="at" d="M-61.7,44.6c0-6.2,5-11.3,11.3-11.3h45.4c6.2,0,11.3,5,11.3,11.3v45.3c0,6.2-5,11.3-11.3,11.3h-45.4     c-6.2,0-11.3-5-11.3-11.3V44.6z"></path></defs><clipPath id="as"><use overflow="visible"></use></clipPath><path clip-path="url(#as)" fill="currentColor" stroke="currentColor" stroke-width="15.04" stroke-miterlimit="10" d="M-61.7,44.6    c0-6.2,5-11.3,11.3-11.3h45.4c6.2,0,11.3,5,11.3,11.3v45.3c0,6.2-5,11.3-11.3,11.3h-45.4c-6.2,0-11.3-5-11.3-11.3V44.6z"></path></g><g display="inline"><defs><path id="ar" d="M-65.5,105.9v45.3c0,8.3,6.7,15,15,15h45.4c8.3,0,15-6.7,15-15v-45.3c0-8.3-6.7-15-15-15h-45.4     C-58.8,90.8-65.5,97.6-65.5,105.9z M-58,105.9c0-4.2,3.4-7.5,7.5-7.5h45.4c4.1,0,7.5,3.4,7.5,7.5v45.3c0,4.2-3.4,7.5-7.5,7.5     h-45.4c-4.1,0-7.5-3.4-7.5-7.5V105.9z M-85.5,70.8H29.9v115.4H-85.5V70.8z"></path></defs><clipPath id="aq"><use overflow="visible"></use></clipPath><g clip-path="url(#aq)"><defs><path id="ap" d="M-61.7,105.9c0-6.2,5-11.3,11.3-11.3h45.4c6.2,0,11.3,5,11.3,11.3v45.3c0,6.2-5,11.3-11.3,11.3h-45.4      c-6.2,0-11.3-5-11.3-11.3V105.9z"></path></defs><clipPath id="ao"><use overflow="visible"></use></clipPath><path clip-path="url(#ao)" fill-rule="evenodd" clip-rule="evenodd" fill="currentColor" d="M-61.7,105.9     c0-6.2,5-11.3,11.3-11.3h45.4c6.2,0,11.3,5,11.3,11.3v45.3c0,6.2-5,11.3-11.3,11.3h-45.4c-6.2,0-11.3-5-11.3-11.3V105.9z"></path></g></g><g display="inline"><defs><path id="an" d="M-61.7,105.9c0-6.2,5-11.3,11.3-11.3h45.4c6.2,0,11.3,5,11.3,11.3v45.3c0,6.2-5,11.3-11.3,11.3h-45.4     c-6.2,0-11.3-5-11.3-11.3V105.9z"></path></defs><clipPath id="am"><use overflow="visible"></use></clipPath><path clip-path="url(#am)" fill="currentColor" stroke="currentColor" stroke-width="15.04" stroke-miterlimit="10" d="M-61.7,105.9    c0-6.2,5-11.3,11.3-11.3h45.4c6.2,0,11.3,5,11.3,11.3v45.3c0,6.2-5,11.3-11.3,11.3h-45.4c-6.2,0-11.3-5-11.3-11.3V105.9z"></path></g><g display="inline"><defs><path id="al" d="M-4.2,44.6v45.3c0,8.3,6.7,15,15,15h45.4c8.3,0,15-6.7,15-15V44.6c0-8.3-6.7-15-15-15H10.9     C2.6,29.5-4.2,36.3-4.2,44.6z M3.4,44.6c0-4.2,3.4-7.5,7.5-7.5h45.4c4.1,0,7.5,3.4,7.5,7.5v45.3c0,4.2-3.4,7.5-7.5,7.5H10.9     c-4.1,0-7.5-3.4-7.5-7.5V44.6z M-24.2,9.5H91.3v115.4H-24.2V9.5z"></path></defs><clipPath id="ak"><use overflow="visible"></use></clipPath><g clip-path="url(#ak)"><defs><path id="aj" d="M-0.4,44.6c0-6.2,5-11.3,11.3-11.3h45.4c6.2,0,11.3,5,11.3,11.3v45.3c0,6.2-5,11.3-11.3,11.3H10.9      c-6.2,0-11.3-5-11.3-11.3V44.6z"></path></defs><clipPath id="ai"><use overflow="visible"></use></clipPath><path clip-path="url(#ai)" fill-rule="evenodd" clip-rule="evenodd" fill="currentColor" d="M-0.4,44.6c0-6.2,5-11.3,11.3-11.3     h45.4c6.2,0,11.3,5,11.3,11.3v45.3c0,6.2-5,11.3-11.3,11.3H10.9c-6.2,0-11.3-5-11.3-11.3V44.6z"></path></g></g><g display="inline"><defs><path id="ah" d="M-0.4,44.6c0-6.2,5-11.3,11.3-11.3h45.4c6.2,0,11.3,5,11.3,11.3v45.3c0,6.2-5,11.3-11.3,11.3H10.9     c-6.2,0-11.3-5-11.3-11.3V44.6z"></path></defs><clipPath id="ag"><use overflow="visible"></use></clipPath><path clip-path="url(#ag)" fill="currentColor" stroke="currentColor" stroke-width="15.04" stroke-miterlimit="10" d="M-0.4,44.6    c0-6.2,5-11.3,11.3-11.3h45.4c6.2,0,11.3,5,11.3,11.3v45.3c0,6.2-5,11.3-11.3,11.3H10.9c-6.2,0-11.3-5-11.3-11.3V44.6z"></path></g><g display="inline"><defs><path id="af" d="M-4.2,105.9v45.3c0,8.3,6.7,15,15,15h45.4c8.3,0,15-6.7,15-15v-45.3c0-8.3-6.7-15-15-15H10.9     C2.6,90.8-4.2,97.6-4.2,105.9z M3.4,105.9c0-4.2,3.4-7.5,7.5-7.5h45.4c4.1,0,7.5,3.4,7.5,7.5v45.3c0,4.2-3.4,7.5-7.5,7.5H10.9     c-4.1,0-7.5-3.4-7.5-7.5V105.9z M-24.2,70.8H91.3v115.4H-24.2V70.8z"></path></defs><clipPath id="ae"><use overflow="visible"></use></clipPath><g clip-path="url(#ae)"><defs><path id="ad" d="M-0.4,105.9c0-6.2,5-11.3,11.3-11.3h45.4c6.2,0,11.3,5,11.3,11.3v45.3c0,6.2-5,11.3-11.3,11.3H10.9      c-6.2,0-11.3-5-11.3-11.3V105.9z"></path></defs><clipPath id="ac"><use overflow="visible"></use></clipPath><path clip-path="url(#ac)" fill-rule="evenodd" clip-rule="evenodd" fill="currentColor" d="M-0.4,105.9     c0-6.2,5-11.3,11.3-11.3h45.4c6.2,0,11.3,5,11.3,11.3v45.3c0,6.2-5,11.3-11.3,11.3H10.9c-6.2,0-11.3-5-11.3-11.3V105.9z"></path></g></g><g display="inline"><defs><path id="ab" d="M-0.4,105.9c0-6.2,5-11.3,11.3-11.3h45.4c6.2,0,11.3,5,11.3,11.3v45.3c0,6.2-5,11.3-11.3,11.3H10.9     c-6.2,0-11.3-5-11.3-11.3V105.9z"></path></defs><clipPath id="aa"><use overflow="visible"></use></clipPath><path clip-path="url(#aa)" fill="currentColor" stroke="currentColor" stroke-width="15.04" stroke-miterlimit="10" d="M-0.4,105.9    c0-6.2,5-11.3,11.3-11.3h45.4c6.2,0,11.3,5,11.3,11.3v45.3c0,6.2-5,11.3-11.3,11.3H10.9c-6.2,0-11.3-5-11.3-11.3V105.9z"></path></g></g><g display="none"><path display="inline" fill="currentColor" stroke="currentColor" stroke-width="12" stroke-miterlimit="10" d="M-10.2,43c0,0-5.6,22.7,4.5,44.3   s33.1,41.9,33.1,96.1s-11.9,79.4-6.9,115.3c5,35.9,15.5,68.3,13.3,80.9c-2.2,12.6-12.5,17.5-25,18.5c-12.4,1-63.3,0.3-63.3,0.3"></path><g display="inline"><defs><path id="z" d="M-68.1,54v5h5h70h5v-5V12.9C11.9,5.2,5.8-1-1.8-1h-52.5c-7.6,0-13.8,6.2-13.8,13.9V54z"></path></defs><clipPath id="y"><use overflow="visible"></use></clipPath><rect x="-68.1" y="-1" clip-path="url(#y)" fill="currentColor" width="80" height="60"></rect></g><g display="inline"><defs><path id="x" d="M-63.1,54V12.9c0-4.9,3.9-8.9,8.8-8.9h52.5C3,4,6.9,8,6.9,12.9V54H-63.1z M-83.1-16h110v90h-110V-16z"></path></defs><clipPath id="w"><use overflow="visible"></use></clipPath><path clip-path="url(#w)" fill="currentColor" stroke="currentColor" stroke-width="20" stroke-miterlimit="10" d="M-63.1,54V12.9    c0-4.9,3.9-8.9,8.8-8.9h52.5C3,4,6.9,8,6.9,12.9V54H-63.1z"></path></g><g display="inline"><defs><path id="v" d="M-63.1,54V12.9c0-4.9,3.9-8.9,8.8-8.9h52.5C3,4,6.9,8,6.9,12.9V54"></path></defs><clipPath id="u"><use overflow="visible"></use></clipPath><path clip-path="url(#u)" fill="currentColor" stroke="currentColor" stroke-width="17.6" stroke-linecap="round" stroke-miterlimit="10" d="    M-63.1,54V12.9c0-4.9,3.9-8.9,8.8-8.9h52.5C3,4,6.9,8,6.9,12.9V54"></path></g></g><g display="none"><g display="inline"><defs><path id="t" d="M-72,152.1c-6.6,4.7-11,12.5-11,21.2V369c0,14.4,11.6,26,26,26h52.5c14.4,0,26-11.6,26-26V173.4     c0-10.2-5.8-19-14.3-23.2l0.7,0c0,0-5-2-7-9.2c-2-7.2-7.2-104.2-7.2-104.2l4.3-6.8c0,0-1.1-24.1-1.3-29.8c-0.2-5.7-4-6.2-4-6.2     s-40.4-0.3-46.2,0c-5.9,0.3-5.6,5.8-5.6,5.8l-0.4,29.9l3.7,7.5c0,0-4.3,97.5-6.4,104.1c-2.1,6.6-10.2,10.9-10.2,10.9L-72,152.1z"></path></defs><clipPath id="s"><use overflow="visible"></use></clipPath><path clip-path="url(#s)" fill="currentColor" stroke="currentColor" stroke-width="24" stroke-linecap="round" stroke-linejoin="round" stroke-miterlimit="10" d="    M-72,152.1c-6.6,4.7-11,12.5-11,21.2V369c0,14.4,11.6,26,26,26h52.5c14.4,0,26-11.6,26-26V173.4c0-10.2-5.8-19-14.3-23.2l0.7,0    c0,0-5-2-7-9.2c-2-7.2-7.2-104.2-7.2-104.2l4.3-6.8c0,0-1.1-24.1-1.3-29.8c-0.2-5.7-4-6.2-4-6.2s-40.4-0.3-46.2,0    c-5.9,0.3-5.6,5.8-5.6,5.8l-0.4,29.9l3.7,7.5c0,0-4.3,97.5-6.4,104.1c-2.1,6.6-10.2,10.9-10.2,10.9L-72,152.1z"></path></g></g><g display="none"><path display="inline" fill="currentColor" stroke="currentColor" stroke-width="8" stroke-linecap="round" stroke-miterlimit="10" d="M-38,97.9   c0,0-3.9-80.2,93.2-59.6"></path><path display="inline" fill="currentColor" stroke="currentColor" stroke-width="6" stroke-miterlimit="10" d="M10.9,34c0,0-6.5-17.1,1-31.1   C19.3-11.3,30-12.9,30-12.9s6.6,14.8-0.1,28.7C23.2,29.8,10.9,34,10.9,34z"></path><path display="inline" fill="currentColor" stroke="currentColor" stroke-width="6" stroke-miterlimit="10" d="M38.7,122.2   c0,0-9.1-15.8-3.9-30.9C40,76.2,50.2,72.9,50.2,72.9s8.8,13.5,4.4,28.4C50.2,116.1,38.7,122.2,38.7,122.2z"></path><path display="inline" fill="currentColor" stroke="currentColor" stroke-width="6" stroke-miterlimit="10" d="M53.6,37.7c0,0,17.4-5.6,31,2.6   c13.7,8.2,14.8,18.9,14.8,18.9S84.3,65,70.7,57.6C57.1,50.2,53.6,37.7,53.6,37.7z"></path><g display="inline"><defs><path id="r" d="M-5.3,63c0.1-3.9,0.4-4.9,1.1-7.4c0.8-2.4,2.9-2.7,4-2.5c1.2,0.2,3.3,0.6,5.1,0.1c1.8-0.5,4.5-1.6,6-0.2     c1.4,1.4,2.2,3.9,1.8,9.2c-0.4,5.3-2.5,14-1.3,20.5c1.1,6.5,4,11.4,4,12.3c0,1,0.1,2.7-1.9,2.9c-2.1,0.2-7-2.4-9.7-5.6     c-2.6-3.3-7.3-10.1-8.4-16.5C-5.7,69.5-5.4,66.9-5.3,63z"></path></defs><clipPath id="q"><use overflow="visible"></use></clipPath><rect x="-10.2" y="47.5" transform="matrix(-0.9994 3.489969e-02 -3.489969e-02 -0.9994 12.1826 150.6107)" clip-path="url(#q)" fill="currentColor" width="29.9" height="55.8"></rect></g><line display="inline" fill="currentColor" stroke="currentColor" stroke-width="4" stroke-linecap="square" stroke-miterlimit="10" x1="4" y1="39.5" x2="4" y2="59.5"></line></g><g display="none"><g display="inline"><defs><path id="p" d="M-129.7,52c0-5.5,4.5-10,10-10H71.6c5.5,0,10,4.5,10,10v279.6c0,5.5-4.5,10-10,10h-191.3     c-5.5,0-10-4.5-10-10V52z"></path></defs><clipPath id="o"><use overflow="visible"></use></clipPath><path clip-path="url(#o)" fill="currentColor" stroke="currentColor" stroke-width="24" stroke-miterlimit="10" d="M-129.7,52    c0-5.5,4.5-10,10-10H71.6c5.5,0,10,4.5,10,10v279.6c0,5.5-4.5,10-10,10h-191.3c-5.5,0-10-4.5-10-10V52z"></path></g><polyline display="inline" fill="currentColor" stroke="currentColor" stroke-width="8" stroke-linecap="round" stroke-linejoin="round" stroke-miterlimit="10" points="   92.6,60 92.6,353.6 -112.7,353.6  "></polyline></g><g display="none"><path display="inline" fill="currentColor" stroke="currentColor" stroke-width="12" stroke-linecap="round" stroke-linejoin="round" stroke-miterlimit="10" d="   M-194.7,108.2l1.3,198c0,0,6.5,1,9.7,1.5c74.7,11.7,224.1,35,224.1,35V113.4l-235.5-19.5"></path><polyline display="inline" fill="currentColor" stroke="currentColor" stroke-width="12" stroke-linecap="round" stroke-linejoin="round" stroke-miterlimit="10" points="   -193.6,93 -69.4,44.7 134.5,61 51.8,106.1  "></polyline><polyline display="inline" fill="currentColor" stroke="currentColor" stroke-width="12" stroke-linecap="round" stroke-linejoin="round" stroke-miterlimit="10" points="   41.8,342.2 134.8,271.8 135.1,77.3  "></polyline><g display="inline"><defs><polygon id="n" points="-111.2,128.5 -58.4,133.5 -57.8,105 50.6,55.4 -0.9,51.8 -111.4,99    "></polygon></defs><clipPath id="m"><use overflow="visible"></use></clipPath><rect x="-116.4" y="46.8" clip-path="url(#m)" fill="currentColor" width="172" height="91.7"></rect></g><polygon display="inline" fill="currentColor" stroke="currentColor" stroke-width="8" stroke-linecap="round" stroke-linejoin="round" stroke-miterlimit="10" points="   -111.2,128.5 -58.4,133.5 -57.8,105 50.6,55.4 -0.9,51.8 -111.4,99  "></polygon></g><g display="none"><g display="inline"><defs><rect id="l" x="-196" y="41" width="331" height="331"></rect></defs><clipPath id="k"><use overflow="visible"></use></clipPath><rect x="-196" y="41" clip-path="url(#k)" fill="currentColor" stroke="currentColor" stroke-width="24" stroke-miterlimit="10" width="331" height="331"></rect></g><g display="inline"><defs><path id="j" d="M80.4,18.5H72c-3.3,0-6,2.7-6,6v41.7c0,3.3,2.7,6,6,6h8.4c3.3,0,6-2.7,6-6V24.5     C86.4,21.2,83.7,18.5,80.4,18.5z"></path></defs><clipPath id="i"><use overflow="visible"></use></clipPath><rect x="65" y="17.5" clip-path="url(#i)" fill="currentColor" width="22.4" height="55.7"></rect></g><g display="inline"><defs><path id="h" d="M80.4,22.5c1.1,0,2,0.9,2,2v41.7c0,1.1-0.9,2-2,2H72c-1.1,0-2-0.9-2-2V24.5c0-1.1,0.9-2,2-2H80.4z      M100.4,4.5v81.7H52V4.5H100.4z"></path></defs><clipPath id="g"><use overflow="visible"></use></clipPath><path clip-path="url(#g)" fill="currentColor" stroke="currentColor" stroke-width="16" stroke-miterlimit="10" d="M80.4,22.5    c1.1,0,2,0.9,2,2v41.7c0,1.1-0.9,2-2,2H72c-1.1,0-2-0.9-2-2V24.5c0-1.1,0.9-2,2-2H80.4z"></path></g><g display="inline"><defs><path id="f" d="M9.5,18.5H1c-3.3,0-6,2.7-6,6v41.7c0,3.3,2.7,6,6,6h8.4c3.3,0,6-2.7,6-6V24.5     C15.4,21.2,12.8,18.5,9.5,18.5z"></path></defs><clipPath id="e"><use overflow="visible"></use></clipPath><rect x="-6" y="17.5" clip-path="url(#e)" fill="currentColor" width="22.4" height="55.7"></rect></g><g display="inline"><defs><path id="d" d="M9.5,22.5c1.1,0,2,0.9,2,2v41.7c0,1.1-0.9,2-2,2H1c-1.1,0-2-0.9-2-2V24.5c0-1.1,0.9-2,2-2H9.5z      M29.4,4.5v81.7H-19V4.5H29.4z"></path></defs><clipPath id="c"><use overflow="visible"></use></clipPath><path clip-path="url(#c)" fill="currentColor" stroke="currentColor" stroke-width="16" stroke-miterlimit="10" d="M9.5,22.5    c1.1,0,2,0.9,2,2v41.7c0,1.1-0.9,2-2,2H1c-1.1,0-2-0.9-2-2V24.5c0-1.1,0.9-2,2-2H9.5z"></path></g></g><g display="none"><path display="inline" fill="currentColor" stroke="currentColor" stroke-width="12" stroke-linecap="round" stroke-linejoin="round" stroke-miterlimit="10" d="   M-211.7,99.4l1.5,218.4c0,0,7.2,1.1,10.7,1.7C-117.1,332.3,47.7,358,47.7,358V105.2l-259.8-21.6"></path><polyline display="inline" fill="currentColor" stroke="currentColor" stroke-width="12" stroke-linecap="round" stroke-linejoin="round" stroke-miterlimit="10" points="   -210.5,82.6 -73.5,29.4 151.4,47.3 60.3,97.1  "></polyline><polyline display="inline" fill="currentColor" stroke="currentColor" stroke-width="12" stroke-linecap="round" stroke-linejoin="round" stroke-miterlimit="10" points="   49.2,357.5 151.8,279.8 152,65.3  "></polyline><g display="inline"><defs><polygon id="b" points="-119.6,121.8 -61.4,127.3 -60.6,95.9 58.9,41.1 2.1,37.2 -119.8,89.2    "></polygon></defs><clipPath id="a"><use overflow="visible"></use></clipPath><rect x="-124.8" y="32.2" clip-path="url(#a)" fill="currentColor" width="188.7" height="100.1"></rect></g><polygon display="inline" fill="currentColor" stroke="currentColor" stroke-width="8" stroke-linecap="round" stroke-linejoin="round" stroke-miterlimit="10" points="   -119.6,121.8 -61.4,127.3 -60.6,95.9 58.9,41.1 2.1,37.2 -119.8,89.2  "></polygon></g></svg></g><path fill="#000000" fill-rule="nonzero" d="M3.96 2.28L3.05 2.35Q2.88 4.30 2.88 8.38Q2.88 12.46 3.10 14.98L3.10 14.98L3.96 15.05Q4.01 15.43 4.01 15.71Q4.01 15.98 3.94 16.39L3.94 16.39Q3.10 16.37 1.99 16.37Q0.89 16.37 0.07 16.39L0.07 16.39Q0 16.03 0 15.76Q0 15.48 0.05 15.05L0.05 15.05L0.89 14.98Q1.08 12.38 1.08 8.36Q1.08 4.34 0.86 2.35L0.86 2.35L0.05 2.28Q0 1.90 0 1.62Q0 1.34 0.07 0.94L0.07 0.94Q0.91 0.96 2.02 0.96Q3.12 0.96 3.94 0.94L3.94 0.94Q4.01 1.30 4.01 1.57Q4.01 1.85 3.96 2.28L3.96 2.28ZM16.44 5.57Q15.70 5.57 15.29 5.11Q14.88 4.66 14.88 3.92Q14.88 3.19 15.19 2.78L15.19 2.78Q14.42 2.06 13.08 2.06L13.08 2.06Q11.11 2.06 10.10 3.71Q9.10 5.35 9.10 8.54L9.10 8.54Q9.10 14.95 13.08 14.95L13.08 14.95Q14.04 14.95 15.04 14.48Q16.03 14.02 16.73 13.25L16.73 13.25Q17.47 13.85 17.69 15.14L17.69 15.14Q15.55 16.73 13.08 16.73L13.08 16.73Q9.94 16.73 8.53 14.78Q7.13 12.84 7.13 8.74L7.13 8.74Q7.13 0.65 13.08 0.65L13.08 0.65Q14.88 0.65 16.28 1.60Q17.69 2.54 17.69 4.06Q17.69 5.57 16.44 5.57L16.44 5.57ZM25.44 2.59L25.44 2.59Q25.27 4.46 25.27 8.60Q25.27 12.74 25.46 14.98L25.46 14.98L26.86 15.12Q26.90 15.50 26.90 15.73Q26.90 15.96 26.83 16.39L26.83 16.39Q25.97 16.37 24.35 16.37Q22.73 16.37 21.98 16.39L21.98 16.39Q21.91 16.03 21.91 15.79Q21.91 15.55 21.96 15.12L21.96 15.12L23.28 14.98Q23.47 12.41 23.47 8.46Q23.47 4.51 23.26 2.59L23.26 2.59Q22.32 2.62 20.66 2.76L20.66 2.76L20.59 4.54Q20.21 4.61 19.87 4.61Q19.54 4.61 19.25 4.58L19.25 4.58Q19.18 2.62 19.03 0.94L19.03 0.94L19.15 0.82Q20.93 1.03 24.84 1.03Q28.75 1.03 29.74 0.82L29.74 0.82L29.86 0.94Q29.69 2.78 29.64 4.34L29.64 4.34Q29.35 4.37 29.03 4.37Q28.70 4.37 28.30 4.30L28.30 4.30L28.22 2.69Q27.22 2.64 25.44 2.59ZM52.90 1.06Q52.92 1.25 52.92 1.66Q52.92 2.06 52.85 2.40L52.85 2.40L51.94 2.47Q51.91 3.14 51.91 4.46L51.91 4.46Q51.91 10.34 52.44 14.98L52.44 14.98L53.33 15.05Q53.38 15.43 53.38 15.71Q53.38 15.98 53.30 16.39L53.30 16.39Q52.46 16.37 51.36 16.37Q50.26 16.37 49.44 16.39L49.44 16.39Q49.37 16.03 49.37 15.76Q49.37 15.48 49.42 15.05L49.42 15.05L50.21 14.98Q50.26 13.25 50.26 11.03Q50.26 8.81 50.04 4.85L50.04 4.85Q49.80 5.35 48.84 7.30L48.84 7.30Q46.70 11.54 45.91 13.56L45.91 13.56Q45.43 13.75 44.89 13.75Q44.35 13.75 44.16 13.73L44.16 13.73Q43.32 11.71 41.77 8.84Q40.22 5.98 39.94 5.45L39.94 5.45Q39.74 8.86 39.74 11.22Q39.74 13.58 39.79 14.98L39.79 14.98L40.68 15.05Q40.73 15.43 40.73 15.71Q40.73 15.98 40.66 16.39L40.66 16.39Q39.89 16.37 38.88 16.37Q37.87 16.37 37.13 16.39L37.13 16.39Q37.06 16.03 37.06 15.76Q37.06 15.48 37.10 15.05L37.10 15.05L37.94 14.98Q38.45 10.61 38.45 4.63L38.45 4.63Q38.45 3.48 38.38 2.47L38.38 2.47L37.49 2.40Q37.42 2.06 37.42 1.66Q37.42 1.25 37.44 1.06L37.44 1.06Q39.41 1.01 40.42 0.94L40.42 0.94Q40.82 3.14 45.26 11.33L45.26 11.33Q48.94 4.15 49.56 0.94L49.56 0.94Q50.45 1.01 52.90 1.06L52.90 1.06ZM64.01 8.09L64.01 8.09L63.91 11.54Q63.91 13.18 64.10 14.74L64.10 14.74L64.99 14.81Q65.04 15.19 65.04 15.52Q65.04 15.84 64.97 16.20L64.97 16.20Q64.27 16.22 62.26 16.44L62.26 16.44Q62.09 15.98 61.99 15.31L61.99 15.31Q60.12 16.73 58.76 16.73Q57.41 16.73 56.65 15.85Q55.90 14.98 55.90 13.36Q55.90 11.74 56.92 10.80Q57.94 9.86 59.48 9.86Q61.03 9.86 62.14 10.44L62.14 10.44Q62.16 10.18 62.16 9.58L62.16 9.58Q62.16 7.80 61.67 7.02Q61.18 6.24 60.17 6.24Q59.16 6.24 58.70 6.62L58.70 6.62Q58.90 7.01 58.90 7.58Q58.90 8.16 58.52 8.58Q58.15 9.00 57.48 9.00L57.48 9.00Q56.35 9.00 56.35 7.67Q56.35 6.34 57.36 5.62Q58.37 4.90 60.19 4.90Q62.02 4.90 63.01 5.75Q64.01 6.60 64.01 8.09ZM62.04 11.95L62.04 11.95Q61.06 11.11 59.93 11.11L59.93 11.11Q57.77 11.11 57.77 13.03L57.77 13.03Q57.77 15.00 59.47 15.00L59.47 15.00Q60.10 15.00 60.80 14.68Q61.51 14.35 61.92 13.87L61.92 13.87Q62.04 12.43 62.04 11.95ZM74.14 5.47L74.14 5.47L74.16 3.96Q74.16 2.52 74.06 1.63L74.06 1.63L73.10 1.56Q73.03 1.27 73.03 0.82Q73.03 0.36 73.06 0.22L73.06 0.22Q75.19 0.12 76.18 0L76.18 0L76.27 0.12Q75.91 3.26 75.91 8.22Q75.91 13.18 76.13 14.76L76.13 14.76L77.02 14.81Q77.06 15.34 77.06 15.59Q77.06 15.84 76.99 16.20L76.99 16.20Q76.06 16.25 74.38 16.44L74.38 16.44Q74.18 16.06 74.09 15.22L74.09 15.22Q72.43 16.73 70.74 16.73Q69.05 16.73 68.15 15.19Q67.25 13.66 67.25 10.84Q67.25 8.02 68.39 6.46Q69.53 4.90 71.66 4.90L71.66 4.90Q72.86 4.90 74.14 5.47ZM71.69 6.31L71.69 6.31Q69.29 6.31 69.29 11.09L69.29 11.09Q69.29 12.89 69.83 13.88Q70.37 14.88 71.33 14.88L71.33 14.88Q71.98 14.88 72.76 14.47Q73.54 14.06 74.11 13.44L74.11 13.44Q74.16 10.46 74.16 7.01L74.16 7.01Q72.62 6.31 71.69 6.31ZM83.26 11.04L83.26 11.04Q82.08 11.04 81.07 10.92L81.07 10.92Q81.12 15.00 83.78 15.00L83.78 15.00Q85.13 15.00 86.76 13.51L86.76 13.51Q87.46 14.23 87.65 15.41L87.65 15.41Q85.68 16.73 83.47 16.73Q81.26 16.73 80.18 15.20Q79.10 13.68 79.10 10.73Q79.10 7.78 80.32 6.34Q81.53 4.90 83.76 4.90L83.76 4.90Q85.42 4.90 86.50 5.90Q87.58 6.91 87.59 8.38Q87.60 9.84 87.34 10.46L87.34 10.46Q85.54 11.04 83.26 11.04ZM83.59 6.24L83.59 6.24Q81.36 6.24 81.10 9.53L81.10 9.53Q82.18 9.65 83.47 9.65Q84.77 9.65 85.49 9.41L85.49 9.41Q85.58 8.81 85.58 8.52L85.58 8.52Q85.58 7.46 85.04 6.85Q84.50 6.24 83.59 6.24ZM103.15 7.54L103.22 6.62Q103.75 6.58 103.94 6.58Q104.14 6.58 104.57 6.65L104.57 6.65Q104.54 7.39 104.54 8.57Q104.54 9.74 104.57 10.10L104.57 10.10Q104.21 10.18 103.87 10.18Q103.54 10.18 103.22 10.13L103.22 10.13L103.15 9.29Q101.86 9.24 101.02 9.24Q100.18 9.24 98.88 9.29L98.88 9.29Q98.88 12.43 99.05 14.54L99.05 14.54Q99.89 14.62 101.44 14.62Q102.98 14.62 103.87 14.50L103.87 14.50L103.94 12.86Q104.35 12.79 104.70 12.79Q105.05 12.79 105.29 12.82L105.29 12.82Q105.31 14.69 105.50 16.37L105.50 16.37L105.38 16.49Q104.21 16.37 100.24 16.37Q96.26 16.37 96.05 16.39L96.05 16.39Q95.98 16.03 95.98 15.71Q95.98 15.38 96.02 15.05L96.02 15.05L96.86 14.98Q97.08 11.26 97.08 8.24Q97.08 5.23 96.79 2.42L96.79 2.42L95.98 2.35Q95.93 2.04 95.93 1.70Q95.93 1.37 96 1.01L96 1.01Q96.60 1.03 100.39 1.03Q104.18 1.03 105.26 0.82L105.26 0.82L105.38 0.94Q105.19 3.05 105.17 4.34L105.17 4.34Q104.93 4.37 104.57 4.37Q104.21 4.37 103.82 4.30L103.82 4.30L103.75 2.66Q102.53 2.59 101.21 2.59Q99.89 2.59 99.02 2.66L99.02 2.66Q98.88 4.18 98.88 7.61L98.88 7.61Q99.26 7.63 100.44 7.63Q101.62 7.63 103.15 7.54L103.15 7.54ZM116.14 8.09L116.14 8.09L116.04 11.54Q116.04 13.18 116.23 14.74L116.23 14.74L117.12 14.81Q117.17 15.19 117.17 15.52Q117.17 15.84 117.10 16.20L117.10 16.20Q116.40 16.22 114.38 16.44L114.38 16.44Q114.22 15.98 114.12 15.31L114.12 15.31Q112.25 16.73 110.89 16.73Q109.54 16.73 108.78 15.85Q108.02 14.98 108.02 13.36Q108.02 11.74 109.04 10.80Q110.06 9.86 111.61 9.86Q113.16 9.86 114.26 10.44L114.26 10.44Q114.29 10.18 114.29 9.58L114.29 9.58Q114.29 7.80 113.80 7.02Q113.30 6.24 112.30 6.24Q111.29 6.24 110.83 6.62L110.83 6.62Q111.02 7.01 111.02 7.58Q111.02 8.16 110.65 8.58Q110.28 9.00 109.61 9.00L109.61 9.00Q108.48 9.00 108.48 7.67Q108.48 6.34 109.49 5.62Q110.50 4.90 112.32 4.90Q114.14 4.90 115.14 5.75Q116.14 6.60 116.14 8.09ZM114.17 11.95L114.17 11.95Q113.18 11.11 112.06 11.11L112.06 11.11Q109.90 11.11 109.90 13.03L109.90 13.03Q109.90 15.00 111.60 15.00L111.60 15.00Q112.22 15.00 112.93 14.68Q113.64 14.35 114.05 13.87L114.05 13.87Q114.17 12.43 114.17 11.95ZM123 4.90Q124.68 4.90 125.68 5.69Q126.67 6.48 126.67 7.74Q126.67 9.00 125.54 9.00L125.54 9.00Q124.87 9.00 124.50 8.58Q124.13 8.16 124.13 7.58Q124.13 7.01 124.32 6.62L124.32 6.62Q123.74 6.17 122.95 6.17Q122.16 6.17 121.64 6.55Q121.13 6.94 121.13 7.68Q121.13 8.42 121.72 8.98Q122.30 9.53 123.14 9.88Q123.98 10.22 124.82 10.60Q125.66 10.97 126.25 11.65Q126.84 12.34 126.84 13.34L126.84 13.34Q126.84 14.90 125.80 15.82Q124.75 16.73 122.95 16.73Q121.15 16.73 120.01 15.96Q118.87 15.19 118.87 13.94L118.87 13.94L118.87 13.85Q118.87 12.55 120 12.55L120 12.55Q120.67 12.55 121.04 12.97Q121.42 13.39 121.42 13.94Q121.42 14.50 121.30 14.81L121.30 14.81Q121.78 15.12 122.82 15.12Q123.86 15.12 124.40 14.76Q124.94 14.40 124.94 13.76Q124.94 13.13 124.36 12.62Q123.77 12.12 122.93 11.77Q122.09 11.42 121.25 11.03Q120.41 10.63 119.82 9.89Q119.23 9.14 119.23 8.11L119.23 8.11Q119.23 6.62 120.28 5.76Q121.32 4.90 123 4.90ZM135.19 6.58L134.18 6.50Q134.14 6.26 134.14 5.87Q134.14 5.47 134.21 5.16L134.21 5.16Q134.93 5.18 136.21 5.18Q137.50 5.18 138.19 5.16L138.19 5.16Q138.26 5.47 138.26 5.83Q138.26 6.19 138.22 6.50L138.22 6.50L137.50 6.58Q136.85 8.33 135.83 11.40Q134.81 14.47 134.29 15.91Q133.78 17.35 133.33 18.24Q132.89 19.13 132.36 19.92L132.36 19.92Q131.35 21.41 129.97 21.41Q128.59 21.41 127.44 20.64L127.44 20.64Q127.54 19.25 128.23 18.65L128.23 18.65Q128.95 19.63 129.98 19.63L129.98 19.63Q131.09 19.63 132.43 16.51L132.43 16.51Q131.21 12.22 128.57 6.58L128.57 6.58L127.78 6.50Q127.73 6.22 127.73 5.84Q127.73 5.47 127.80 5.16L127.80 5.16Q128.50 5.18 129.88 5.18Q131.26 5.18 131.98 5.16L131.98 5.16Q132.05 5.47 132.05 5.84Q132.05 6.22 132 6.50L132 6.50L131.02 6.58Q131.47 9.24 133.37 13.70L133.37 13.70L133.46 13.70Q134.66 9.82 135.19 6.58L135.19 6.58Z" transform="translate(0, 52)"></path></svg>